<?xml version="1.0" encoding="utf-8"?>
<!-- Generator: Adobe Illustrator 20.0.0, SVG Export Plug-In . SVG Version: 6.00 Build 0)  -->
<svg version="1.1" id="Layer_1" xmlns="http://www.w3.org/2000/svg" xmlns:xlink="http://www.w3.org/1999/xlink" x="0px" y="0px"
	 viewBox="0 0 918.7 684.1" style="enable-background:new 0 0 918.7 684.1;" xml:space="preserve">
<style type="text/css">
	.devops-diagram-st0{fill:none;stroke:#CFC535;stroke-width:3;stroke-miterlimit:10;}
	.devops-diagram-st1{fill:#467ABB;}
	.devops-diagram-st2{font-family:'HelveticaNeue-Bold';}
	.devops-diagram-st3{font-size:11px;}
	.devops-diagram-st4{font-size:10.9649px;}
	.devops-diagram-st5{fill:#91C742;}
	.devops-diagram-st6{fill:#FFFFFF;}
	.devops-diagram-st7{font-size:12px;}
	.devops-diagram-st8{fill:#375F81;}
	.devops-diagram-st9{fill:none;stroke:#FFFFFF;stroke-width:0.4321;stroke-miterlimit:10;}
	.devops-diagram-st10{fill:#C4972E;}
	.devops-diagram-st11{fill:none;stroke:#467ABB;stroke-width:0.4984;stroke-miterlimit:10;}
	.devops-diagram-st12{fill:none;stroke:#467ABB;stroke-width:1.9936;stroke-miterlimit:10;}
	.devops-diagram-st13{fill:none;}
	.devops-diagram-st14{font-size:11.9618px;}
	.devops-diagram-st15{font-family:'HelveticaNeue-Bold';}
	.devops-diagram-st16{font-size:7.905px;}
	.devops-diagram-st17{fill:#EAC01E;}
	.devops-diagram-st18{fill:#90C543;}
	.devops-diagram-st19{fill:#F4783B;}
	.devops-diagram-st20{fill:#75469B;}
	.devops-diagram-st21{font-size:8.6237px;}
	.devops-diagram-st22{fill:#E12834;}
	.devops-diagram-st23{fill:#07B09D;}
	.devops-diagram-st24{font-size:9.1679px;}
	.devops-diagram-st25{fill:#EEC11B;}
	.devops-diagram-st26{fill:none;stroke:#467ABB;stroke-miterlimit:10;}
	.devops-diagram-st27{fill:#74439A;}
	.devops-diagram-st28{fill:#E32633;}
	.devops-diagram-st29{fill:none;stroke:#FFFFFF;stroke-width:2;stroke-miterlimit:10;}
	.devops-diagram-st30{fill:#FFFFFF;stroke:#FFFFFF;stroke-miterlimit:10;}
	.devops-diagram-st31{fill:none;stroke:#FFFFFF;stroke-width:6;stroke-miterlimit:10;}
	.devops-diagram-st32{fill:none;stroke:#F4783C;stroke-width:2;stroke-miterlimit:10;}
	.devops-diagram-st33{fill:#818385;}
	.devops-diagram-st34{font-size:11.9025px;}
	.devops-diagram-st35{font-size:10.7022px;}
	.devops-diagram-st36{font-size:12.7999px;}
	.devops-diagram-st37{fill:#8CC643;}
	.devops-diagram-st38{fill:#0BAED1;}
	.devops-diagram-st39{fill:#05456A;}
	.devops-diagram-st40{fill:#EE6C58;}
	.devops-diagram-st41{fill:#FFFFFF;stroke:#FFFFFF;stroke-width:3;stroke-miterlimit:10;}
	.devops-diagram-st42{fill:none;stroke:#FFFFFF;stroke-width:3;stroke-miterlimit:10;}
	.devops-diagram-st43{opacity:0.58;}
	.devops-diagram-st44{enable-background:new    ;}
	.devops-diagram-st45{fill:#17A69E;}
	.devops-diagram-st46{fill:#020202;}
	.devops-diagram-st47{opacity:0.58;fill:none;stroke:#17A69E;stroke-width:2;stroke-miterlimit:10;enable-background:new    ;}
	.devops-diagram-st48{fill:none;stroke:#F9B52D;stroke-miterlimit:10;}
	.devops-diagram-st49{opacity:0.58;fill:none;stroke:#F9B52D;stroke-width:2;stroke-miterlimit:10;enable-background:new    ;}
	.devops-diagram-st50{opacity:0.58;fill:none;stroke:#F05555;stroke-width:2;stroke-miterlimit:10;enable-background:new    ;}
	.devops-diagram-st51{fill:none;stroke:#F05555;stroke-miterlimit:10;}
	.devops-diagram-st52{fill:none;stroke:#4D853D;stroke-miterlimit:10;}
	.devops-diagram-st53{opacity:0.58;fill:none;stroke:#4D853D;stroke-width:2;stroke-miterlimit:10;enable-background:new    ;}
	.devops-diagram-st54{fill:none;stroke:#74439A;stroke-miterlimit:10;}
	.devops-diagram-st55{fill:none;stroke:#74439A;stroke-width:2;stroke-miterlimit:10;}

		.devops-diagram-st56{opacity:0.58;fill:none;stroke:#DC2A82;stroke-linecap:round;stroke-linejoin:round;stroke-miterlimit:10;enable-background:new    ;}
	.devops-diagram-st57{fill:none;stroke:#DC2A82;stroke-width:2;stroke-miterlimit:10;}
	.devops-diagram-st58{fill:none;stroke:#4579BD;stroke-miterlimit:10;}
	.devops-diagram-st59{opacity:0.58;fill:none;stroke:#4579BD;stroke-width:2;stroke-miterlimit:10;enable-background:new    ;}
	.devops-diagram-st60{fill:none;stroke:#4378BB;stroke-width:1.5;stroke-miterlimit:10;}
	.devops-diagram-st61{fill:#1C75BC;stroke:#4378BB;stroke-width:1.5;stroke-miterlimit:10;}
</style>
<g id="Layer_1_1_">
</g>
<g id="Layer_5">
</g>
<g id="Layer_2">
</g>
<g id="Layer_3">
</g>
<g id="Layer_4">
</g>
<g id="Layer_6">
	<g id="devops_track_and_plan">
		<polyline class="devops-diagram-st0" points="436.1,112.7 436.1,110.8 436,103.7 436,103.3 435.9,102.8 435.8,102.4 435.7,102.1 435.6,101.7
			435.5,101.4 435.4,101.1 435.2,100.8 435,100.3 434.9,100.1 434.6,99.7 434.3,99.2 434,98.9 433.7,98.5 433.4,98.2 433,97.9
			432.6,97.5 432.3,97.3 432,97.1 431.6,96.9 431.2,96.7 430.8,96.5 430.5,96.4 430,96.2 429.5,96.1 429.1,96 428.7,95.9
			428.4,95.8 427.9,95.8 427.6,95.8 427,95.8 426.2,95.8 425.8,95.8 425.2,95.8 424.8,95.8 424.2,95.8 423.6,95.8 423.2,95.9
			422.7,96 422.4,96 422.1,96.1 421.7,96.2 421.5,96.3 421.2,96.4 420.9,96.5 420.6,96.7 420.4,96.8 420.2,96.9 420,97 419.7,97.2
			419.4,97.4 419.1,97.6 418.8,97.8 418.6,98.1 418.3,98.3 418.1,98.5 417.9,98.7 417.7,99 417.5,99.3 417.3,99.6 417.1,99.8
			416.9,100.1 416.8,100.4 416.6,100.7 416.5,101 416.4,101.3 416.3,101.5 416.2,101.9 416,102.2 416,102.6 415.9,102.9
			415.8,103.3 415.8,103.7 415.8,104.2 415.8,133.2 		"/>

		<polyline class="devops-diagram-st0" points="415.8,139.1 415.8,140.5 415.8,148.3 415.9,149.4 416.1,150.3 416.3,150.8 416.7,151.9 417.1,152.6
			417.6,153.2 418.3,154.1 419,154.7 419.7,155.3 421.4,156.1 422.5,156.4 423.7,156.7 425.1,156.7 425.9,156.7 426.9,156.7
			428.3,156.6 429.8,156.3 430.9,155.9 431.6,155.5 432.4,155.1 433,154.5 433.6,154 434.2,153.4 434.7,152.7 435.2,151.8
			435.4,151.3 435.7,150.5 435.9,149.5 436.1,148 436.1,146.4 436,118.7 		"/>



		<polyline class="devops-diagram-st0" points="439.7,135.7 442.5,135.7 445.8,135.7 447.4,135.7 449.5,135.7 451.2,135.4 452,135.2 452.9,134.8
			454,134.2 454.6,133.8 455.4,133.1 456.1,132.3 456.6,131.5 457.1,130.6 457.6,129.4 457.8,128.1 457.9,127 457.9,125.6
			457.9,124 457.7,122.4 457.5,121.6 456.9,120 456.4,119.2 455.8,118.4 455.1,117.7 454.1,116.9 453.4,116.5 452.2,115.9
			451.1,115.6 449.9,115.4 419.4,115.5 		"/>



		<polyline class="devops-diagram-st0" points="412.2,115.4 408.6,115.5 406.7,115.5 404.7,115.5 402.9,115.7 401.8,116 400.6,116.6 399.7,117.1
			398.7,118 397.9,118.8 397.2,120 396.5,121.5 396.1,122.8 396.1,124.2 396.1,126.5 396.2,128.6 396.5,129.6 397.3,131.6
			398.1,132.7 399.3,133.8 400.7,134.8 402.9,135.6 404.8,135.8 408.1,135.8 432.6,135.8 		"/>



	</g>

<g id="devops_track_and_plan">

<polyline class="devops-diagram-st13" points="436.1,112.7 436.1,110.8 436,103.7 436,103.3 435.9,102.8 435.8,102.4 435.7,102.1 435.6,101.7
			435.5,101.4 435.4,101.1 435.2,100.8 435,100.3 434.9,100.1 434.6,99.7 434.3,99.2 434,98.9 433.7,98.5 433.4,98.2 433,97.9
			432.6,97.5 432.3,97.3 432,97.1 431.6,96.9 431.2,96.7 430.8,96.5 430.5,96.4 430,96.2 429.5,96.1 429.1,96 428.7,95.9
			428.4,95.8 427.9,95.8 427.6,95.8 427,95.8 426.2,95.8 425.8,95.8 425.2,95.8 424.8,95.8 424.2,95.8 423.6,95.8 423.2,95.9
			422.7,96 422.4,96 422.1,96.1 421.7,96.2 421.5,96.3 421.2,96.4 420.9,96.5 420.6,96.7 420.4,96.8 420.2,96.9 420,97 419.7,97.2
			419.4,97.4 419.1,97.6 418.8,97.8 418.6,98.1 418.3,98.3 418.1,98.5 417.9,98.7 417.7,99 417.5,99.3 417.3,99.6 417.1,99.8
			416.9,100.1 416.8,100.4 416.6,100.7 416.5,101 416.4,101.3 416.3,101.5 416.2,101.9 416,102.2 416,102.6 415.9,102.9
			415.8,103.3 415.8,103.7 415.8,104.2 415.8,133.2 "/>

<polyline class="devops-diagram-st13" points="415.8,139.1 415.8,140.5 415.8,148.3 415.9,149.4 416.1,150.3 416.3,150.8 416.7,151.9 417.1,152.6
			417.6,153.2 418.3,154.1 419,154.7 419.7,155.3 421.4,156.1 422.5,156.4 423.7,156.7 425.1,156.7 425.9,156.7 426.9,156.7
			428.3,156.6 429.8,156.3 430.9,155.9 431.6,155.5 432.4,155.1 433,154.5 433.6,154 434.2,153.4 434.7,152.7 435.2,151.8
			435.4,151.3 435.7,150.5 435.9,149.5 436.1,148 436.1,146.4 436,118.7 		"/>

<polyline class="devops-diagram-st13" points="439.7,135.7 442.5,135.7 445.8,135.7 447.4,135.7 449.5,135.7 451.2,135.4 452,135.2 452.9,134.8
			454,134.2 454.6,133.8 455.4,133.1 456.1,132.3 456.6,131.5 457.1,130.6 457.6,129.4 457.8,128.1 457.9,127 457.9,125.6
			457.9,124 457.7,122.4 457.5,121.6 456.9,120 456.4,119.2 455.8,118.4 455.1,117.7 454.1,116.9 453.4,116.5 452.2,115.9
			451.1,115.6 449.9,115.4 419.4,115.5 		"/>


	<polyline class="devops-diagram-st13" points="412.2,115.4 408.6,115.5 406.7,115.5 404.7,115.5 402.9,115.7 401.8,116 400.6,116.6 399.7,117.1
			398.7,118 397.9,118.8 397.2,120 396.5,121.5 396.1,122.8 396.1,124.2 396.1,126.5 396.2,128.6 396.5,129.6 397.3,131.6
			398.1,132.7 399.3,133.8 400.7,134.8 402.9,135.6 404.8,135.8 408.1,135.8 432.6,135.8 		"/>

</g>



	<g>
		<text transform="matrix(1 0 0 1 382.6536 327.1293)" class="devops-diagram-st1 devops-diagram-st2 devops-diagram-st3">COLLABORATIVE</text>
		<text transform="matrix(1 0 0 1 388.8535 340.3293)" class="devops-diagram-st1 devops-diagram-st2 devops-diagram-st3">DEVELOPMENT</text>
	</g>
	<g>
		<text transform="matrix(1 0 0 1 404.9194 573.2068)" class="devops-diagram-st1 devops-diagram-st2 devops-diagram-st3">RUNTIME &amp;</text>
		<text transform="matrix(1 0 0 1 399.5193 586.4067)" class="devops-diagram-st1 devops-diagram-st2 devops-diagram-st3">CONTAINERS</text>
	</g>
	<g>
		<text transform="matrix(1 0 0 1 282.0258 536.0081)" class="devops-diagram-st1 devops-diagram-st2 devops-diagram-st3">MONITORING &amp;</text>
		<text transform="matrix(1 0 0 1 298.6259 549.208)" class="devops-diagram-st1 devops-diagram-st2 devops-diagram-st3">METRICS</text>
	</g>
	<g>
		<text transform="matrix(1 0 0 1 521.3816 430.1975)" class="devops-diagram-st1 devops-diagram-st2 devops-diagram-st3">RELEASE</text>
		<text transform="matrix(1 0 0 1 506.2817 443.3975)" class="devops-diagram-st1 devops-diagram-st2 devops-diagram-st3">MANAGEMENT</text>
	</g>
	<g>
		<text transform="matrix(1 0 0 1 494.4482 536.0083)" class="devops-diagram-st1 devops-diagram-st2 devops-diagram-st3">DEPLOYMENT</text>
		<text transform="matrix(1 0 0 1 484.9482 549.2083)" class="devops-diagram-st1 devops-diagram-st2 devops-diagram-st3">ORCHESTRATION</text>
	</g>
	<g>
		<g>
			<text transform="matrix(1 0 0 1 217.3347 306.6247)" class="devops-diagram-st1 devops-diagram-st2 devops-diagram-st3">IT SE</text>
			<text transform="matrix(1 0 0 1 244.6348 306.6247)" class="devops-diagram-st1 devops-diagram-st2 devops-diagram-st3">R</text>
			<text transform="matrix(1 0 0 1 252.3347 306.6247)" class="devops-diagram-st1 devops-diagram-st2 devops-diagram-st3">VICE</text>
			<text transform="matrix(1 0 0 1 207.3347 319.8246)" class="devops-diagram-st1 devops-diagram-st2 devops-diagram-st3">MANAGEMENT</text>
		</g>
	</g>
	<g>
		<text transform="matrix(1 0 0 1 607.0911 441.3975)" class="devops-diagram-st1 devops-diagram-st2 devops-diagram-st3">A</text>
		<text transform="matrix(1 0 0 1 614.5911 441.3975)" class="devops-diagram-st1 devops-diagram-st2 devops-diagram-st3">R</text>
		<text transform="matrix(1 0 0 1 622.3914 441.3975)" class="devops-diagram-st1 devops-diagram-st2 devops-diagram-st3">TI</text>
		<text transform="matrix(1 0 0 1 632.2913 441.3975)" class="devops-diagram-st1 devops-diagram-st2 devops-diagram-st3">F</text>
		<text transform="matrix(1 0 0 1 638.2913 441.3975)" class="devops-diagram-st1 devops-diagram-st2 devops-diagram-st3">ACT</text>
		<text transform="matrix(1 0 0 1 593.9912 454.5974)" class="devops-diagram-st1 devops-diagram-st2 devops-diagram-st3">MANAGEMENT</text>
	</g>
	<g>
		<g>
			<text transform="matrix(1 0 0 1 237.4639 439.7974)" class="devops-diagram-st1 devops-diagram-st2 devops-diagram-st3">ALE</text>
			<text transform="matrix(1 0 0 1 258.6639 439.7974)" class="devops-diagram-st1 devops-diagram-st2 devops-diagram-st3">R</text>
			<text transform="matrix(1 0 0 1 266.3639 439.7974)" class="devops-diagram-st1 devops-diagram-st2 devops-diagram-st3">T</text>
			<text transform="matrix(1 0 0 1 215.9639 452.9973)" class="devops-diagram-st1 devops-diagram-st2 devops-diagram-st3">NOTIFIC</text>
			<text transform="matrix(1 0 0 1 260.5638 452.9973)" class="devops-diagram-st1 devops-diagram-st2 devops-diagram-st3">A</text>
			<text transform="matrix(1 0 0 1 267.0638 452.9973)" class="devops-diagram-st1 devops-diagram-st2 devops-diagram-st3">TION</text>
		</g>
	</g>
	<g>
		<text transform="matrix(1 0 0 1 301.1555 207.715)" class="devops-diagram-st1 devops-diagram-st2 devops-diagram-st4">USAGE</text>
		<text transform="matrix(1 0 0 1 289.1554 220.9147)" class="devops-diagram-st1 devops-diagram-st2 devops-diagram-st4">ANA</text>
		<text transform="matrix(1 0 0 1 312.2554 220.9147)" class="devops-diagram-st1 devops-diagram-st2 devops-diagram-st4">L</text>
		<text transform="matrix(1 0 0 1 317.5554 220.9147)" class="devops-diagram-st1 devops-diagram-st2 devops-diagram-st4">YTICS</text>
	</g>
	<g id="devops_transformation_and_connectivity_3_">
		<ellipse class="devops-diagram-st5" cx="753.6" cy="194.3" rx="27.5" ry="27.5"/>
		<g>
			<g>
				<path class="devops-diagram-st6" d="M744,206.3c-5.8,0-10.5-4.7-10.5-10.5s4.7-10.5,10.5-10.5c4.1,0,7.8,2.4,9.5,6.2l-1.1,0.5
					c-1.5-3.3-4.8-5.5-8.5-5.5c-5.1,0-9.3,4.2-9.3,9.3s4.2,9.3,9.3,9.3h0.2v1.2H744C744.1,206.3,744.1,206.3,744,206.3z"/>
				<g>
					<polygon class="devops-diagram-st6" points="754.7,187.5 753.9,187.3 752.8,191.5 748.6,190.1 748.4,190.9 753.4,192.6 					"/>
				</g>
			</g>
			<rect x="744" y="205.1" class="devops-diagram-st6" width="15.2" height="1.2"/>
			<path class="devops-diagram-st6" d="M763.9,186.9c-0.4-5.3-4.9-9.4-10.2-9.4c-5.1,0-9.3,3.6-10.1,8.6l-1.2-0.2c0.9-5.6,5.6-9.6,11.3-9.6
				c5.9,0,10.9,4.6,11.4,10.5L763.9,186.9z"/>
			<g>
				<path class="devops-diagram-st6" d="M763.6,207.3c-5.1,0-9.4-3.6-10.3-8.6l1.2-0.2c0.8,4.4,4.7,7.6,9.2,7.6c5.1,0,9.3-4.2,9.3-9.3
					c0-5-4.1-9.2-9.1-9.3v-1.2c5.7,0.1,10.3,4.8,10.3,10.5C774.1,202.6,769.4,207.3,763.6,207.3z"/>
				<g>
					<polygon class="devops-diagram-st6" points="751.2,202.3 752,202.7 754,198.9 757.7,201.2 758.2,200.5 753.7,197.6 					"/>
				</g>
			</g>
		</g>
	</g>
	<g>
		<text transform="matrix(1 0 0 1 690.9451 237.0903)" class="devops-diagram-st1 devops-diagram-st2 devops-diagram-st7">TRANSFORMATION &amp;</text>
		<text transform="matrix(1 0 0 1 707.2451 250.2902)" class="devops-diagram-st1 devops-diagram-st2 devops-diagram-st7">CONNECTIVITY</text>
	</g>
	<g>
		<text transform="matrix(1 0 0 1 801.0322 376.6752)" class="devops-diagram-st1 devops-diagram-st2 devops-diagram-st3">ENTERPRISE</text>
		<text transform="matrix(1 0 0 1 786.7322 389.8752)" class="devops-diagram-st1 devops-diagram-st2 devops-diagram-st3">USER DIRECTORY</text>
	</g>
	<g id="devops_enterprise_user_directory_3_">
		<ellipse class="devops-diagram-st8" cx="835.9" cy="338.4" rx="27.5" ry="27.5"/>
		<g>
			<path class="devops-diagram-st6" d="M832.8,329.6v-3.3l-13.2-0.1v3.3v3.3l-0.1,17.6l33.1,0.2l0.1-17.6v-3.3L832.8,329.6z M851.4,349.5l-30.9-0.2
				l0.1-16.5l30.9,0.2L851.4,349.5z"/>
			<g>
				<path class="devops-diagram-st6" d="M839.1,344.2h-5.3c-0.7,0-1.3,0.6-1.3,1.3v1.3l7.9,0.1v-1.3C840.4,344.8,839.8,344.2,839.1,344.2z"/>
				<circle class="devops-diagram-st9" cx="836.4" cy="339.5" r="3.1"/>
			</g>
		</g>
	</g>
	<g>
		<text transform="matrix(1 0 0 1 36.4995 306.95)" class="devops-diagram-st1 devops-diagram-st2 devops-diagram-st3">APPLICATION</text>
		<text transform="matrix(1 0 0 1 37.4995 320.15)" class="devops-diagram-st1 devops-diagram-st2 devops-diagram-st3">CONSUMERS</text>
	</g>
  <g id="devops_user_3_">
    <ellipse class="devops-diagram-st10" cx="73.6" cy="269.2" rx="27.5" ry="27.5"/>
  	<g>
  		<g>
  			<path class="devops-diagram-st6" d="M80.2,275.7L67,275.6c-1.8,0-3.3,1.5-3.3,3.3v3.3l19.8,0.1V279C83.5,277.2,82,275.7,80.2,275.7z"/>
  			<path class="devops-diagram-st6" d="M73.6,272.3c-4.6,0-8.4-3.8-8.4-8.4s3.8-8.4,8.4-8.4s8.4,3.8,8.4,8.4S78.2,272.3,73.6,272.3z M73.6,256.6
  				c-4.1,0-7.3,3.3-7.3,7.3c0,4.1,3.3,7.3,7.3,7.3c4.1,0,7.4-3.3,7.4-7.3C80.9,259.9,77.6,256.6,73.6,256.6z"/>
  		</g>
  	</g>
  </g>
	<line class="devops-diagram-st11" x1="132.5" y1="14.2" x2="132.5" y2="674.6"/>
	<line class="devops-diagram-st11" x1="753.3" y1="13.1" x2="753.3" y2="159.8"/>
	<line class="devops-diagram-st11" x1="751.2" y1="269.9" x2="751.2" y2="671.8"/>
	<rect x="13.8" y="13.1" class="devops-diagram-st12" width="885" height="660.7"/>
	<g>
		<rect x="137.2" y="17" class="devops-diagram-st13" width="168.8" height="14"/>
		<text transform="matrix(1 0 0 1 137.2147 25.5293)" class="devops-diagram-st1 devops-diagram-st2 devops-diagram-st14">PROVIDER CLOUD</text>
	</g>
	<g>
		<rect x="17.2" y="17.3" class="devops-diagram-st13" width="118.8" height="12.7"/>
		<text transform="matrix(1 0 0 1 17.6591 25.8317)" class="devops-diagram-st1 devops-diagram-st2 devops-diagram-st14">PUBLIC NETWORK</text>
	</g>
	<g>
		<rect x="753.1" y="17.4" class="devops-diagram-st13" width="144.8" height="17.3"/>
		<text transform="matrix(1 0 0 1 754.1196 25.8938)" class="devops-diagram-st1 devops-diagram-st2 devops-diagram-st14">ENTERPRISE NETWORK</text>
	</g>
	<g>
		<g>
			<text transform="matrix(1.3422 0 0 1 770.5684 661.3232)" class="devops-diagram-st1 devops-diagram-st15 devops-diagram-st16">A</text>
			<text transform="matrix(1.3422 0 0 1 778.084 661.3232)" class="devops-diagram-st1 devops-diagram-st15 devops-diagram-st16">n</text>
			<text transform="matrix(1.3422 0 0 1 784.124 661.3232)" class="devops-diagram-st1 devops-diagram-st15 devops-diagram-st16">a</text>
			<text transform="matrix(1.3422 0 0 1 790.1641 661.3232)" class="devops-diagram-st1 devops-diagram-st15 devops-diagram-st16">l</text>
			<text transform="matrix(1.3422 0 0 1 792.7148 661.3232)" class="devops-diagram-st1 devops-diagram-st15 devops-diagram-st16">y</text>
			<text transform="matrix(1.3422 0 0 1 798.8887 661.3232)" class="devops-diagram-st1 devops-diagram-st15 devops-diagram-st16">tics</text>
		</g>
		<rect x="754" y="600.7" class="devops-diagram-st17" width="12.6" height="5.8"/>
		<rect x="753.9" y="618.6" class="devops-diagram-st18" width="12.6" height="5.8"/>
		<rect x="753.9" y="646.2" class="devops-diagram-st19" width="12.6" height="5.8"/>
		<rect x="753.9" y="655.7" class="devops-diagram-st20" width="12.6" height="5.8"/>
		<g>
			<text transform="matrix(1.3422 0 0 1 770.6104 606.8096)" class="devops-diagram-st1 devops-diagram-st15 devops-diagram-st16">A</text>
			<text transform="matrix(1.3422 0 0 1 778.127 606.8096)" class="devops-diagram-st1 devops-diagram-st15 devops-diagram-st16">pplic</text>
			<text transform="matrix(1.3422 0 0 1 801.749 606.8096)" class="devops-diagram-st1 devops-diagram-st15 devops-diagram-st16">a</text>
			<text transform="matrix(1.3422 0 0 1 807.7891 606.8096)" class="devops-diagram-st1 devops-diagram-st15 devops-diagram-st16">tion </text>
			<text transform="matrix(1.3422 0 0 1 828.9961 606.8096)" class="devops-diagram-st1 devops-diagram-st15 devops-diagram-st16">c</text>
			<text transform="matrix(1.3422 0 0 1 835.0361 606.8096)" class="devops-diagram-st1 devops-diagram-st15 devops-diagram-st16">ompo</text>
			<text transform="matrix(1.3422 0 0 1 863.2217 606.8096)" class="devops-diagram-st1 devops-diagram-st15 devops-diagram-st16">n</text>
			<text transform="matrix(1.3422 0 0 1 869.3965 606.8096)" class="devops-diagram-st1 devops-diagram-st15 devops-diagram-st16">e</text>
			<text transform="matrix(1.3422 0 0 1 875.3018 606.8096)" class="devops-diagram-st1 devops-diagram-st15 devops-diagram-st16">n</text>
			<text transform="matrix(1.3422 0 0 1 881.3418 606.8096)" class="devops-diagram-st1 devops-diagram-st15 devops-diagram-st16">t</text>
		</g>
		<rect x="754" y="609.9" class="devops-diagram-st10" width="12.6" height="5.8"/>
		<g>
			<text transform="matrix(1.3422 0 0 1 771.2021 616.0049)" class="devops-diagram-st1 devops-diagram-st15 devops-diagram-st16">U</text>
			<text transform="matrix(1.3422 0 0 1 778.7188 616.0049)" class="devops-diagram-st1 devops-diagram-st15 devops-diagram-st16">s</text>
			<text transform="matrix(1.3422 0 0 1 784.2217 616.0049)" class="devops-diagram-st1 devops-diagram-st15 devops-diagram-st16">er</text>
		</g>
		<g>
			<text transform="matrix(1.3422 0 0 1 753.9189 595.459)" class="devops-diagram-st1 devops-diagram-st15 devops-diagram-st21">L</text>
			<text transform="matrix(1.3422 0 0 1 760.6299 595.459)" class="devops-diagram-st1 devops-diagram-st15 devops-diagram-st21">E</text>
			<text transform="matrix(1.3422 0 0 1 767.8779 595.459)" class="devops-diagram-st1 devops-diagram-st15 devops-diagram-st21">GEND</text>
		</g>
		<g>
			<text transform="matrix(1.3422 0 0 1 770.6387 624.5273)" class="devops-diagram-st1 devops-diagram-st15 devops-diagram-st16">In</text>
			<text transform="matrix(1.3422 0 0 1 779.6309 624.5273)" class="devops-diagram-st1 devops-diagram-st15 devops-diagram-st16">f</text>
			<text transform="matrix(1.3422 0 0 1 783.2549 624.5273)" class="devops-diagram-st1 devops-diagram-st15 devops-diagram-st16">r</text>
			<text transform="matrix(1.3422 0 0 1 787.2812 624.5273)" class="devops-diagram-st1 devops-diagram-st15 devops-diagram-st16">a</text>
			<text transform="matrix(1.3422 0 0 1 793.1875 624.5273)" class="devops-diagram-st1 devops-diagram-st15 devops-diagram-st16">s</text>
			<text transform="matrix(1.3422 0 0 1 798.6904 624.5273)" class="devops-diagram-st1 devops-diagram-st15 devops-diagram-st16">t</text>
			<text transform="matrix(1.3422 0 0 1 802.4482 624.5273)" class="devops-diagram-st1 devops-diagram-st15 devops-diagram-st16">r</text>
			<text transform="matrix(1.3422 0 0 1 806.6094 624.5273)" class="devops-diagram-st1 devops-diagram-st15 devops-diagram-st16">u</text>
			<text transform="matrix(1.3422 0 0 1 812.6494 624.5273)" class="devops-diagram-st1 devops-diagram-st15 devops-diagram-st16">c</text>
			<text transform="matrix(1.3422 0 0 1 818.8232 624.5273)" class="devops-diagram-st1 devops-diagram-st15 devops-diagram-st16">tu</text>
			<text transform="matrix(1.3422 0 0 1 828.6211 624.5273)" class="devops-diagram-st1 devops-diagram-st15 devops-diagram-st16">r</text>
			<text transform="matrix(1.3422 0 0 1 832.5137 624.5273)" class="devops-diagram-st1 devops-diagram-st15 devops-diagram-st16">e </text>
			<text transform="matrix(1.3422 0 0 1 841.1035 624.5273)" class="devops-diagram-st1 devops-diagram-st15 devops-diagram-st16">s</text>
			<text transform="matrix(1.3422 0 0 1 846.6074 624.5273)" class="devops-diagram-st1 devops-diagram-st15 devops-diagram-st16">e</text>
			<text transform="matrix(1.3422 0 0 1 852.5127 624.5273)" class="devops-diagram-st1 devops-diagram-st15 devops-diagram-st16">r</text>
			<text transform="matrix(1.3422 0 0 1 857.0762 624.5273)" class="devops-diagram-st1 devops-diagram-st15 devops-diagram-st16">vi</text>
			<text transform="matrix(1.3422 0 0 1 864.9951 624.5273)" class="devops-diagram-st1 devops-diagram-st15 devops-diagram-st16">c</text>
			<text transform="matrix(1.3422 0 0 1 871.0352 624.5273)" class="devops-diagram-st1 devops-diagram-st15 devops-diagram-st16">es</text>
		</g>
		<g>
			<text transform="matrix(1.3422 0 0 1 770.2705 652.7695)" class="devops-diagram-st1 devops-diagram-st15 devops-diagram-st16">D</text>
			<text transform="matrix(1.3422 0 0 1 777.9209 652.7695)" class="devops-diagram-st1 devops-diagram-st15 devops-diagram-st16">e</text>
			<text transform="matrix(1.3422 0 0 1 783.6924 652.7695)" class="devops-diagram-st1 devops-diagram-st15 devops-diagram-st16">vOps</text>
		</g>
		<rect x="754" y="637.4" class="devops-diagram-st8" width="12.6" height="5.8"/>
		<g>
			<text transform="matrix(1.3422 0 0 1 770.5078 643.998)" class="devops-diagram-st1 devops-diagram-st15 devops-diagram-st16">D</text>
			<text transform="matrix(1.3422 0 0 1 778.1582 643.998)" class="devops-diagram-st1 devops-diagram-st15 devops-diagram-st16">a</text>
			<text transform="matrix(1.3422 0 0 1 784.0645 643.998)" class="devops-diagram-st1 devops-diagram-st15 devops-diagram-st16">t</text>
			<text transform="matrix(1.3422 0 0 1 787.8223 643.998)" class="devops-diagram-st1 devops-diagram-st15 devops-diagram-st16">a </text>
			<text transform="matrix(1.3422 0 0 1 796.2783 643.998)" class="devops-diagram-st1 devops-diagram-st15 devops-diagram-st16">s</text>
			<text transform="matrix(1.3422 0 0 1 801.7812 643.998)" class="devops-diagram-st1 devops-diagram-st15 devops-diagram-st16">t</text>
			<text transform="matrix(1.3422 0 0 1 805.2705 643.998)" class="devops-diagram-st1 devops-diagram-st15 devops-diagram-st16">o</text>
			<text transform="matrix(1.3422 0 0 1 811.5791 643.998)" class="devops-diagram-st1 devops-diagram-st15 devops-diagram-st16">r</text>
			<text transform="matrix(1.3422 0 0 1 815.3369 643.998)" class="devops-diagram-st1 devops-diagram-st15 devops-diagram-st16">e</text>
		</g>
		<rect x="753.9" y="665" class="devops-diagram-st22" width="12.6" height="5.8"/>
		<g>
			<text transform="matrix(1.3422 0 0 1 770.3184 670.8945)" class="devops-diagram-st1 devops-diagram-st15 devops-diagram-st16">S</text>
			<text transform="matrix(1.3422 0 0 1 777.1631 670.8945)" class="devops-diagram-st1 devops-diagram-st15 devops-diagram-st16">ecu</text>
			<text transform="matrix(1.3422 0 0 1 795.1484 670.8945)" class="devops-diagram-st1 devops-diagram-st15 devops-diagram-st16">r</text>
			<text transform="matrix(1.3422 0 0 1 799.4434 670.8945)" class="devops-diagram-st1 devops-diagram-st15 devops-diagram-st16">i</text>
			<text transform="matrix(1.3422 0 0 1 801.9941 670.8945)" class="devops-diagram-st1 devops-diagram-st15 devops-diagram-st16">t</text>
			<text transform="matrix(1.3422 0 0 1 806.0205 670.8945)" class="devops-diagram-st1 devops-diagram-st15 devops-diagram-st16">y </text>
		</g>
		<rect x="753.9" y="628.6" class="devops-diagram-st23" width="12.6" height="5.8"/>
		<g>
			<text transform="matrix(1.3422 0 0 1 770.5342 634.7949)" class="devops-diagram-st1 devops-diagram-st15 devops-diagram-st16">M</text>
			<text transform="matrix(1.3422 0 0 1 779.9297 634.7949)" class="devops-diagram-st1 devops-diagram-st15 devops-diagram-st16">a</text>
			<text transform="matrix(1.3422 0 0 1 785.9697 634.7949)" class="devops-diagram-st1 devops-diagram-st15 devops-diagram-st16">nage</text>
			<text transform="matrix(1.3422 0 0 1 810.2637 634.7949)" class="devops-diagram-st1 devops-diagram-st15 devops-diagram-st16">m</text>
			<text transform="matrix(1.3422 0 0 1 819.6582 634.7949)" class="devops-diagram-st1 devops-diagram-st15 devops-diagram-st16">e</text>
			<text transform="matrix(1.3422 0 0 1 825.6982 634.7949)" class="devops-diagram-st1 devops-diagram-st15 devops-diagram-st16">n</text>
			<text transform="matrix(1.3422 0 0 1 831.6035 634.7949)" class="devops-diagram-st1 devops-diagram-st15 devops-diagram-st16">t</text>
		</g>
	</g>
	<g id="devops_collaboration_3_">
		<g id="Layer_2_112_">
			<circle class="devops-diagram-st19" cx="430.2" cy="291.5" r="25.6"/>
		</g>
		<g>
			<path class="devops-diagram-st6" d="M421.6,297.5c3,0,5.4-2.4,5.4-5.4s-2.4-5.4-5.4-5.4s-5.4,2.4-5.4,5.4S418.6,297.5,421.6,297.5z M421.6,287.8
				c2.4,0,4.3,2,4.3,4.3s-2,4.3-4.3,4.3c-2.4,0-4.3-2-4.3-4.3C417.3,289.8,419.3,287.8,421.6,287.8z"/>
			<path class="devops-diagram-st6" d="M433.5,292.1c0,3,2.4,5.4,5.4,5.4s5.4-2.4,5.4-5.4s-2.4-5.4-5.4-5.4S433.5,289.1,433.5,292.1z M438.8,287.8
				c2.4,0,4.3,2,4.3,4.3s-2,4.3-4.3,4.3c-2.4,0-4.3-2-4.3-4.3S436.5,287.8,438.8,287.8z"/>
			<path class="devops-diagram-st6" d="M435.6,280.3c0-3-2.4-5.4-5.4-5.4s-5.4,2.4-5.4,5.4s2.4,5.4,5.4,5.4S435.6,283.3,435.6,280.3z M430.2,284.6
				c-2.4,0-4.3-2-4.3-4.3c0-2.4,2-4.3,4.3-4.3c2.4,0,4.3,2,4.3,4.3C434.5,282.7,432.6,284.6,430.2,284.6z"/>
			<path class="devops-diagram-st6" d="M426,299.6h-8.6c-1.2,0-2.1,0.9-2.1,2.1v3.3h12.9v-3.3C428.1,300.6,427.1,299.6,426,299.6z"/>
			<path class="devops-diagram-st6" d="M443.2,299.6h-8.6c-1.2,0-2.1,0.9-2.1,2.1v3.3h12.9v-3.3C445.3,300.6,444.3,299.6,443.2,299.6z"/>
		</g>
	</g>
	<g>
		<text transform="matrix(1 0 0 1 402.2183 497.8567)" class="devops-diagram-st1 devops-diagram-st2 devops-diagram-st24">APPLIC</text>
		<text transform="matrix(1 0 0 1 435.6183 497.8567)" class="devops-diagram-st1 devops-diagram-st2 devops-diagram-st24">A</text>
		<text transform="matrix(1 0 0 1 441.1183 497.8567)" class="devops-diagram-st1 devops-diagram-st2 devops-diagram-st24">TION</text>
	</g>
	<g id="devops_application">
		<ellipse class="devops-diagram-st25" cx="432.7" cy="462.1" rx="27.5" ry="27.5"/>
		<path class="devops-diagram-st6" d="M438.2,452.2h-2.4c0,1.7-0.3,3.3-1,5l-7.5-3.6c0.4-1.6,0.1-3.4-1.2-4.7c-1.6-1.6-3.9-1.8-5.7-0.7l-1.8-1.8
			L417,448l1.8,1.8c-1,1.8-0.8,4.2,0.7,5.7c1.2,1.2,3,1.7,4.7,1.1l10.3,21.2l1-0.5l-5.6-11.5c1.5-0.7,2.7-1.7,3.8-2.8
			s2.1-2.4,2.8-3.8l11.6,5.6l0.5-1l-11.6-5.6C437.8,456.2,438.2,454.2,438.2,452.2z M422.1,451.3c0.4-0.4,1.2-0.4,1.7,0
			c0.4,0.4,0.4,1.2,0,1.7c-0.4,0.4-1.2,0.4-1.7,0C421.5,452.6,421.5,451.8,422.1,451.3z M428.9,463.7l-3.6-7.5
			c0.3-0.2,0.6-0.4,0.9-0.7c0.3-0.3,0.5-0.6,0.7-0.9l7.5,3.6C433.2,460.5,431.2,462.4,428.9,463.7z"/>
	</g>
	<rect x="394.2" y="360" class="devops-diagram-st26" width="77" height="228.4"/>
	<g>
		<text transform="matrix(1 0 0 1 402.4869 168.4769)" class="devops-diagram-st1 devops-diagram-st2 devops-diagram-st3">TRACK &amp;</text>
		<text transform="matrix(1 0 0 1 410.5982 179.514)" class="devops-diagram-st1 devops-diagram-st2 devops-diagram-st3">PLAN</text>
	</g>
	<g>
		<text transform="matrix(1 0 0 1 527.6993 205.2117)" class="devops-diagram-st1 devops-diagram-st2 devops-diagram-st3">CODE</text>
		<text transform="matrix(1 0 0 1 523.6026 216.2484)" class="devops-diagram-st1 devops-diagram-st2 devops-diagram-st3">EDITOR</text>
	</g>
	<g>
		<text transform="matrix(1 0 0 1 572.8911 166.3192)" class="devops-diagram-st1 devops-diagram-st2 devops-diagram-st3">SOURCE</text>
		<text transform="matrix(1 0 0 1 569.7143 177.3563)" class="devops-diagram-st1 devops-diagram-st2 devops-diagram-st3">CONTROL</text>
	</g>
	<g>
		<text transform="matrix(1 0 0 1 548.1934 302.8875)" class="devops-diagram-st1 devops-diagram-st2 devops-diagram-st3">BUILD, TEST &amp; CONTINUOUS </text>
		<text transform="matrix(1 0 0 1 581.8887 313.9242)" class="devops-diagram-st1 devops-diagram-st2 devops-diagram-st3">INTEGRATION</text>
	</g>
	<g id="devops_usage_analytics_3_">
		<ellipse class="devops-diagram-st27" cx="319.6" cy="168.8" rx="27.5" ry="27.5"/>
		<path class="devops-diagram-st6" d="M334.9,163.1c-1.1,0-2.1,0.7-2.1,1.9c0,0.7,0.4,1.5,0.9,1.5l0,0l-3.9,8.9c-0.2,0-0.6,0-0.8,0
			c-0.4,0-0.4,0.2-1.4,0.4l0,0l-0.6-4.3c0.7-0.3,1.4-1,1.4-1.9c0-1.1-0.9-3-2.1-3c-0.6,0-1.1-1.3-1.6-0.3l0,0l-2,0.5
			c-0.1-1-0.9-1.4-2-1.4c-0.1,0-0.4,0-0.5,0.1l-1.7-5.1l0,0c0-0.4,0.3-0.3,0.3-0.6c0-1.1-0.9-1.9-2-1.9s-2,1-2,2.1v0.1l-8.3,7
			c-0.4-0.4-0.9-0.7-1.5-0.7c-1.1,0-2.1,0.9-2.1,2.1s0.9,2.1,2.1,2.1s2.1-0.9,2.1-2.1c0-0.2,0-0.4-0.1-0.6l8.1-6.9l0,0
			c0.2,0.6,1,1,1.8,1c0.5,0,0.9-0.2,1.2-0.4v-1l1.5,3.6l0,0c-0.5,0-0.8,2-0.8,2.6c0,1.1,0.9,2.6,2.1,2.6c0.9,0,1.7-0.3,2-1.1
			l1.8,0.7l0,0c0,0.2,0,0.3,0,0.5c0,1.1,0.8,2.1,2,2.1c0.1,0,0.2,0,0.4,0c-0.1,0-0.3,0-0.4,0h-0.1l1,5.1c-0.1,0.2-0.1,0.5-0.1,0.7
			c0,1.1,0.9,2.1,2.1,2.1c1.1,0,2-1.8,2-2.9c0-0.6-0.3-2.4-0.7-2.4l0,0l4-8l0,0c0.1,0,0.2,0.4,0.3,0.4c1.1,0,2.1-0.7,2.1-1.8
			C337,163.9,336,163.1,334.9,163.1z M305.1,169.7c-0.6,0-1.1-0.5-1.1-1.1s0.5-1.1,1.1-1.1s1.1,0.5,1.1,1.1S305.7,169.7,305.1,169.7
			z M306.8,167.6L306.8,167.6L306.8,167.6z M314.9,160.7L314.9,160.7L314.9,160.7z M316.9,161.3c-0.6,0-1.1-0.5-1.1-1.1
			s0.5-1.1,1.1-1.1s1.1,0.5,1.1,1.1S317.5,161.3,316.9,161.3z M318.5,161.4L318.5,161.4L318.5,161.4z M320,166.1L320,166.1
			L320,166.1z M320.8,169.1c-0.6,0-1.1-0.5-1.1-1.1s0.5-1.1,1.1-1.1s1.1,0.5,1.1,1.1C322,168.6,321.5,169.1,320.8,169.1z
			 M322.8,168.4c0-0.1,0-0.3,0-0.4C322.9,168.1,322.9,168.3,322.8,168.4z M324.7,168.7L324.7,168.7L324.7,168.7z M325.3,169.7
			c0-0.6,0.5-1.1,1.1-1.1s1.1,0.5,1.1,1.1s-0.5,1.1-1.1,1.1S325.3,170.3,325.3,169.7z M327.7,176.3L327.7,176.3L327.7,176.3z
			 M329.3,178.7c-0.6,0-1.1-0.5-1.1-1.1s0.5-1.1,1.1-1.1s1.1,0.5,1.1,1.1S329.9,178.7,329.3,178.7z M330.2,175.8
			C330.3,175.8,330.3,175.8,330.2,175.8C330.3,175.8,330.3,175.8,330.2,175.8z M334.2,167.1L334.2,167.1L334.2,167.1z M334.9,166.3
			c-0.6,0-1.1-0.5-1.1-1.1s0.5-1.1,1.1-1.1s1.1,0.5,1.1,1.1S335.5,166.3,334.9,166.3z"/>
	</g>
	<g>
		<text transform="matrix(1 0 0 1 409.4477 431.0866)" class="devops-diagram-st1 devops-diagram-st2 devops-diagram-st24">SECURITY</text>
	</g>
	<g id="devops_security_3_">
		<ellipse class="devops-diagram-st28" cx="432.7" cy="395.8" rx="27.5" ry="27.5"/>
		<g>
			<path class="devops-diagram-st6" d="M442.2,387.6c0-5.1-4.4-9.5-9.5-9.5s-9.5,4.4-9.5,9.5v4.3c-2,2.2-3.2,5.1-3.2,8.3c0,7,5.7,12.7,12.7,12.7
				s12.7-5.7,12.7-12.7c0-3.2-1.2-6.1-3.2-8.3V387.6z M426.3,387.6c0-3.4,3-6.3,6.3-6.3s6.3,3,6.3,6.3v1.7c-1.9-1.1-4-1.7-6.3-1.7
				s-4.5,0.6-6.3,1.7V387.6z M430.3,407.2l-5.9-5.9l2.2-2.2l3.6,3.6l8.4-8.4l2.2,2.2L430.3,407.2z"/>
		</g>
	</g>
	<g id="devops_deployment_orchestration_3_">
		<g id="Layer_2_111_">
			<circle class="devops-diagram-st19" cx="533.3" cy="499.7" r="27.5"/>
		</g>
		<g>

				<rect x="518.6" y="510.1" transform="matrix(0.6124 -0.7906 0.7906 0.6124 -201.8054 609.3549)" class="devops-diagram-st6" width="3.7" height="0.8"/>

				<rect x="519.1" y="512.4" transform="matrix(0.7058 -0.7084 0.7084 0.7058 -209.8248 520.3017)" class="devops-diagram-st6" width="4.8" height="0.8"/>

				<rect x="522" y="513.4" transform="matrix(0.7897 -0.6134 0.6134 0.7897 -205.0295 429.3467)" class="devops-diagram-st6" width="3.7" height="0.8"/>
			<path class="devops-diagram-st6" d="M548.2,486.2c0,0-6.7-5.6-17.2,9.5c-0.4,0.6-0.8,1.1-1.2,1.7l0,0c-6.1-0.3-9.5,5.9-9.5,5.9l4.6,1.2
				c-0.5,0.7-0.8,1.2-1.1,1.6v0.1l0,0c0,0-0.4,0.5,1.5,2.7l0.1,0.1l0.2,0.2c1.7,1.4,2.4,1.5,2.5,1.4l0.2-0.1
				c0.4-0.3,0.9-0.6,1.6-1.1l1.3,4.8c0,0,6.2-3.4,5.9-9.5c0-0.1,0-0.2,0-0.2c0.5-0.3,1-0.7,1.5-1.1
				C553.8,492.9,548.2,486.2,548.2,486.2z M539.6,497.9c-1.6,0-3-1.3-3-3s1.3-3,3-3c1.6,0,3,1.3,3,3S541.2,497.9,539.6,497.9z"/>
		</g>
	</g>
	<g id="devops_alert_notification_3_">
		<circle class="devops-diagram-st23" cx="254.9" cy="403.6" r="27.5"/>
		<g>
			<path class="devops-diagram-st6" d="M254.9,388.6l-17.3,30h34.6L254.9,388.6z M254.9,390.9l15.3,26.5h-30.6L254.9,390.9z"/>
			<polygon class="devops-diagram-st6" points="253.7,401.3 253.7,403.6 254.3,409.3 255.5,409.3 256,403.6 256,401.3 			"/>
			<circle class="devops-diagram-st6" cx="254.9" cy="411.6" r="1.2"/>
		</g>
	</g>
	<g id="devops_monitoring_metrics_3_">
		<circle class="devops-diagram-st23" cx="323.8" cy="499.5" r="27.5"/>
		<g>
			<polygon class="devops-diagram-st6" points="308.6,510.3 308.6,487.5 307.5,487.5 307.5,510.3 307.5,511.4 308.6,511.4 340.1,511.4 340.1,510.3
							"/>
			<rect x="310.7" y="499.5" class="devops-diagram-st6" width="7.6" height="8.7"/>
			<path class="devops-diagram-st6" d="M328.1,490.8h-7.6v17.4h7.6V490.8z M327,507h-5.4v-15.2h5.4V507z"/>
			<rect x="330.3" y="496.2" class="devops-diagram-st6" width="7.6" height="1.1"/>
			<rect x="330.3" y="498.4" class="devops-diagram-st6" width="7.6" height="1.1"/>
			<rect x="330.3" y="500.5" class="devops-diagram-st6" width="7.6" height="1.1"/>
			<rect x="330.3" y="502.7" class="devops-diagram-st6" width="7.6" height="1.1"/>
			<rect x="330.3" y="504.9" class="devops-diagram-st6" width="7.6" height="1.1"/>
			<rect x="330.3" y="507" class="devops-diagram-st6" width="7.6" height="1.1"/>
		</g>
	</g>
  <g id="devops_release_management_3_">
  	<g id="Layer_2_110_">
  		<circle class="devops-diagram-st19" cx="546.6" cy="393.5" r="27.5"/>
  	</g>
  	<path class="devops-diagram-st6" d="M556.9,409.8h6.9v-6.9h-2.5v-10.7h-13.2V384h2.5v-6.9h-6.9v6.9h2.5v8.2h-12.6v10.7h-2.5v6.9h6.9v-6.9h-2.5
  		v-8.8h10.7v8.8h-2.5v6.9h6.9v-6.9h-2.5v-8.8h11.3v8.8h-2.5L556.9,409.8L556.9,409.8z M561.9,404.8v3.2h-3.2v-3.2H561.9z
  		 M536.3,404.8v3.2h-3.2v-3.2H536.3z M548.8,404.8v3.2h-3.2v-3.2H548.8z"/>
  </g>
	<g id="devops_build_test_ci_3_">
		<g id="Layer_2_109_">
			<circle class="devops-diagram-st19" cx="614.8" cy="267.1" r="27.5"/>
		</g>
		<g>
			<circle class="devops-diagram-st6" cx="615.1" cy="287.3" r="3"/>
			<g>
				<circle class="devops-diagram-st6" cx="614.7" cy="246.8" r="3"/>
				<circle class="devops-diagram-st6" cx="615.1" cy="273.9" r="3"/>
				<circle class="devops-diagram-st6" cx="615.1" cy="260.3" r="3"/>
				<circle class="devops-diagram-st6" cx="632.1" cy="260.3" r="5.7"/>
				<circle class="devops-diagram-st6" cx="597.6" cy="273.9" r="5.7"/>
				<line class="devops-diagram-st29" x1="616.3" y1="248.2" x2="628.6" y2="257.3"/>
				<line class="devops-diagram-st29" x1="600.7" y1="271.9" x2="613.9" y2="260.7"/>
				<line class="devops-diagram-st13" x1="601" y1="272.2" x2="600.7" y2="271.9"/>
				<line class="devops-diagram-st29" x1="600.2" y1="276.1" x2="614.3" y2="287.3"/>
				<line class="devops-diagram-st29" x1="615.9" y1="273" x2="630.7" y2="261.9"/>
			</g>
		</g>
	</g>
	<g id="devops_code_editor_3_">
		<g id="Layer_2_108_">
			<circle class="devops-diagram-st19" cx="541.1" cy="168.5" r="27.5"/>
		</g>
		<g>
			<g>

					<rect x="549.1" y="154.2" transform="matrix(0.7071 -0.7071 0.7071 0.7071 49.4723 436.0786)" class="devops-diagram-st6" width="4.1" height="8.2"/>
				<path class="devops-diagram-st6" d="M530.4,173.4l5.8,5.8l14.6-14.6l-5.8-5.8L530.4,173.4z M536.2,177.8l-4.5-4.4l13.2-13.2l4.4,4.4
					L536.2,177.8z"/>
				<polygon class="devops-diagram-st6" points="526.5,183.1 531.4,181.1 528.5,178.2 				"/>
			</g>
		</g>
	</g>
	<g id="devops_it_service_management_3_">
		<circle class="devops-diagram-st23" cx="247.7" cy="266.8" r="27.5"/>
		<g>
			<g>
				<path class="devops-diagram-st6" d="M243.5,248.3c-7.4,0-13.4,6-13.4,13.4c0,7.4,6,13.4,13.4,13.4s13.4-6,13.4-13.4S250.9,248.3,243.5,248.3z
					 M243.5,274c-6.8,0-12.4-5.6-12.4-12.4c0-6.8,5.6-12.4,12.4-12.4s12.4,5.6,12.4,12.4S250.3,274,243.5,274z"/>
				<polygon class="devops-diagram-st6" points="249.8,254.6 243.8,260.6 240.4,257.1 239,258.5 242.5,262 241.3,263.2 241.9,263.9 243.2,262.7
					244.7,264.2 246.1,262.9 244.5,261.3 250.5,255.3 				"/>
			</g>
			<path class="devops-diagram-st23" d="M258.5,276h-13.4c-0.3,0-0.5-0.2-0.5-0.5v-10.7c0-0.3,0.2-0.5,0.5-0.5h13.4c0.3,0,0.5,0.2,0.5,0.5v10.8
				C258.9,275.8,258.7,276,258.5,276z"/>
			<g>
				<g>
					<path class="devops-diagram-st30" d="M262.4,275.1c0-0.9-0.2-1.7-0.5-2.5l1.8-2.2l-2.3-2.9l-2.7,1.4c-0.3-0.2-0.7-0.4-1-0.5
						c-0.4-0.1-0.7-0.2-1.1-0.3l-1.1-2.8l-3.7,0.7l-0.1,2.8c-0.8,0.4-1.4,0.9-2,1.6L247,270l-1.3,3.4l2.3,1.5c0,0.9,0.2,1.7,0.5,2.5
						l-1.8,2.2l2.3,2.9l2.7-1.4c0.3,0.2,0.7,0.4,1,0.5c0.4,0.1,0.7,0.2,1.1,0.3l1.1,2.8l3.7-0.7l0.1-2.8c0.8-0.4,1.4-0.9,2-1.6
						l2.7,0.4l1.3-3.4L262.4,275.1z M262.9,279.4l-2.2-0.3h-0.3l-0.2,0.3c-0.5,0.6-1.1,1.1-1.8,1.4l-0.3,0.2v0.3l-0.1,2.3l-2.7,0.5
						l-0.9-2.3l-0.1-0.3l-0.3-0.1c-0.4-0.1-0.7-0.2-1-0.3c-0.3-0.1-0.6-0.3-0.9-0.4l-0.3-0.2l-0.3,0.2l-2.2,1.2l-1.7-2.1l1.5-1.8
						l0.2-0.3l-0.1-0.3c-0.3-0.7-0.4-1.5-0.4-2.3v-0.3l-0.3-0.2l-1.8-1.2l1-2.5l2.2,0.3h0.3l0.2-0.3c0.5-0.6,1.1-1.1,1.8-1.4
						l0.3-0.2V269l0.1-2.3l2.7-0.5l0.9,2.3l0.1,0.3l0.3,0.1c0.4,0.1,0.7,0.2,1,0.3c0.3,0.1,0.6,0.3,0.9,0.4l0.3,0.2l0.3-0.2l2.2-1.2
						l1.7,2.1l-1.5,1.8l-0.2,0.3l0.1,0.3c0.3,0.7,0.4,1.5,0.4,2.3v0.3l0.3,0.2l1.8,1.2L262.9,279.4z"/>
				</g>
				<g>
					<path class="devops-diagram-st6" d="M251.7,273.7c-0.7,1.9,0.3,4,2.2,4.8c1.9,0.7,4.1-0.2,4.8-2.1c0.7-1.9-0.3-4-2.2-4.8
						C254.6,270.8,252.4,271.8,251.7,273.7z M256.4,275.5c-0.2,0.6-1,1-1.6,0.7c-0.6-0.2-1-1-0.7-1.6s1-1,1.6-0.7
						C256.3,274.1,256.6,274.8,256.4,275.5z"/>
				</g>
			</g>
		</g>
	</g>
	<g id="devops_artifact_management_3_">
		<g id="Layer_2_107_">
			<circle class="devops-diagram-st19" cx="634.3" cy="404.3" r="27.5"/>
		</g>
		<g>
			<ellipse class="devops-diagram-st19" cx="641" cy="420.6" rx="2.8" ry="1.5"/>
			<ellipse class="devops-diagram-st31" cx="635.5" cy="402.6" rx="16.7" ry="16.6"/>
			<g>
				<line class="devops-diagram-st32" x1="656.1" y1="391.6" x2="651.3" y2="398.6"/>
				<line class="devops-diagram-st32" x1="652.2" y1="398.1" x2="640.9" y2="396.6"/>
			</g>
			<g>
				<line class="devops-diagram-st32" x1="612.2" y1="406.7" x2="619.5" y2="402.5"/>
				<line class="devops-diagram-st32" x1="618.6" y1="402.4" x2="628" y2="408.9"/>
			</g>
			<ellipse class="devops-diagram-st19" cx="645.1" cy="417.7" rx="4.9" ry="4.9"/>
			<ellipse class="devops-diagram-st19" cx="635.4" cy="419.3" rx="6.7" ry="6.5"/>
			<g>
				<g>
					<g>
						<path class="devops-diagram-st30" d="M639.9,419.3c0-0.5-0.1-1-0.3-1.5l1.1-1.3l-1.3-1.7l-1.6,0.8c-0.2-0.1-0.4-0.2-0.6-0.3
							c-0.2-0.1-0.4-0.2-0.6-0.2l-0.6-1.7l-2.2,0.4l-0.1,1.7c-0.4,0.3-0.9,0.5-1.2,1l-1.6-0.2l-0.8,2.1l1.3,0.9c0,0.5,0.1,1,0.3,1.5
							l-1.1,1.3l1.3,1.7l1.6-0.8c0.2,0.1,0.4,0.2,0.6,0.3c0.2,0.1,0.4,0.2,0.6,0.2l0.6,1.7l2.2-0.4l0.1-1.7c0.4-0.3,0.9-0.5,1.2-1
							l1.6,0.2l0.8-2.1L639.9,419.3z M640.3,422l-1.3-0.2h-0.2l-0.1,0.2c-0.3,0.4-0.7,0.6-1.1,0.9l-0.2,0.1v0.2l-0.1,1.3l-1.6,0.3
							l-0.5-1.3l-0.1-0.2h-0.2c-0.3-0.1-0.4-0.1-0.6-0.2c-0.2-0.1-0.4-0.2-0.5-0.3l-0.2-0.1l-0.2,0.1l-1.3,0.7l-1-1.3l0.9-1.1
							l0.1-0.2l-0.1-0.2c-0.2-0.4-0.3-0.9-0.3-1.3v-0.2l-0.2-0.1l-1.1-0.7l0.5-1.5l1.3,0.2h0.2l0.1-0.2c0.3-0.4,0.7-0.6,1.1-0.9
							l0.2-0.1v-0.2l0.1-1.3l1.6-0.3l0.5,1.3l0.1,0.2h0.2c0.2,0.1,0.4,0.1,0.6,0.2c0.2,0.1,0.4,0.2,0.5,0.3l0.2,0.1l0.2-0.1l1.3-0.7
							l1,1.3l-0.9,1.1l-0.1,0.2l0.1,0.2c0.2,0.4,0.3,0.9,0.3,1.3v0.2l0.2,0.1l1.1,0.7L640.3,422z"/>
					</g>
					<g>
						<path class="devops-diagram-st6" d="M633.6,418.5c-0.4,1.2,0.2,2.4,1.3,2.9c1.2,0.4,2.4-0.1,2.9-1.3c0.4-1.2-0.2-2.4-1.3-2.9
							S634,417.4,633.6,418.5z M636.4,419.6c-0.2,0.4-0.5,0.5-1,0.4c-0.4-0.2-0.5-0.5-0.4-1s0.5-0.5,1-0.4
							C636.3,418.8,636.5,419.2,636.4,419.6z"/>
					</g>
				</g>
				<g>
					<g>
						<path class="devops-diagram-st30" d="M648,416.1c-0.2-0.3-0.4-0.5-0.7-0.7l0.1-1.1l-1.3-0.4l-0.6,1c-0.2,0-0.3,0-0.4,0.1
							c-0.2,0-0.3,0.1-0.4,0.1l-1-0.7l-1.1,1l0.5,1c-0.2,0.3-0.3,0.6-0.4,1l-1,0.4l0.3,1.4h1.1c0.2,0.3,0.4,0.5,0.7,0.7l-0.1,1.1
							l1.3,0.4l0.6-1c0.2,0,0.3,0,0.4-0.1c0.2,0,0.3-0.1,0.4-0.1l1,0.7l1.1-1l-0.5-1c0.2-0.3,0.3-0.6,0.4-1l1-0.4l-0.3-1.4H648z
							 M649.1,417.5l-0.8,0.4l-0.1,0.1v0.1c-0.1,0.3-0.2,0.6-0.3,0.9l-0.1,0.1l0.1,0.1l0.4,0.8l-0.8,0.7l-0.8-0.6l-0.1-0.1l-0.1,0.1
							c-0.2,0.1-0.3,0.1-0.4,0.1c-0.1,0-0.3,0-0.4,0.1h-0.2l-0.1,0.1l-0.5,0.8l-1-0.4l0.1-0.9v-0.2l-0.1-0.1
							c-0.3-0.2-0.4-0.4-0.6-0.7l-0.1-0.1h-0.1h-0.9l-0.2-1.1l0.8-0.4l0.1-0.1v-0.1c0.1-0.3,0.2-0.6,0.3-0.9l0.1-0.1l-0.1-0.1
							l-0.4-0.8l0.8-0.7l0.8,0.6l0.1,0.1l0.1-0.1c0.2-0.1,0.3-0.1,0.4-0.1c0.1,0,0.3,0,0.4-0.1h0.2l0.1-0.1l0.5-0.8l1,0.4l-0.1,0.9
							v0.2l0.1,0.1c0.3,0.2,0.4,0.4,0.6,0.7l0.1,0.1h0.1h0.9L649.1,417.5z"/>
					</g>
					<g>
						<path class="devops-diagram-st6" d="M644,417.9c0.2,0.8,1,1.3,1.8,1.2c0.8-0.2,1.3-0.9,1.2-1.7c-0.2-0.8-1-1.3-1.8-1.2
							C644.4,416.3,643.9,417.1,644,417.9z M646,417.5c0.1,0.3-0.1,0.5-0.4,0.5c-0.3,0.1-0.5-0.1-0.6-0.4s0.1-0.5,0.4-0.5
							C645.7,417.1,645.9,417.3,646,417.5z"/>
					</g>
				</g>
			</g>
		</g>
	</g>
	<g class="flowStep">
		<g>
			<circle class="devops-diagram-st33" cx="570.3" cy="364.2" r="9.3"/>
		</g>
		<g>
			<text transform="matrix(1 0 0 1 567.0886 368.3654)" class="devops-diagram-st6 devops-diagram-st2 devops-diagram-st34">7</text>
		</g>
	</g>
	<g class="flowStep">
		<g>
			<circle class="devops-diagram-st33" cx="552.3" cy="466.9" r="8.4"/>
		</g>
		<g>
			<text transform="matrix(1 0 0 1 549.5074 470.7184)" class="devops-diagram-st6 devops-diagram-st2 devops-diagram-st35">8</text>
		</g>
	</g>
	<g class="flowStep">
		<g>
			<circle class="devops-diagram-st33" cx="461.4" cy="440.1" r="8.4"/>
		</g>
		<g>
			<text transform="matrix(1 0 0 1 458.5775 443.8664)" class="devops-diagram-st6 devops-diagram-st2 devops-diagram-st35">9</text>
		</g>
	</g>
	<g class="flowStep">
		<g>
			<circle class="devops-diagram-st33" cx="458.6" cy="515.9" r="8.4"/>
		</g>
		<g>
			<text transform="matrix(1 0 0 1 452.7375 519.7116)" class="devops-diagram-st6 devops-diagram-st2 devops-diagram-st35">10</text>
		</g>
	</g>
	<g class="flowStep">
		<g>
			<circle class="devops-diagram-st33" cx="457.2" cy="369.7" r="8.4"/>
		</g>
		<g>
			<text transform="matrix(1 0 0 1 451.3982 373.521)" class="devops-diagram-st6 devops-diagram-st2 devops-diagram-st35">11</text>
		</g>
	</g>
	<g class="flowStep">
		<g>
			<circle class="devops-diagram-st33" cx="351.3" cy="475.5" r="8.4"/>
		</g>
		<g>
			<text transform="matrix(1 0 0 1 345.4707 479.3304)" class="devops-diagram-st6 devops-diagram-st2 devops-diagram-st35">12</text>
		</g>
	</g>
	<g class="flowStep">
		<g>
			<circle class="devops-diagram-st33" cx="283.5" cy="378.1" r="8.4"/>
		</g>
		<g>
			<text transform="matrix(1 0 0 1 277.6442 381.9046)" class="devops-diagram-st6 devops-diagram-st2 devops-diagram-st35">13</text>
		</g>
	</g>
	<g class="flowStep">
		<g>
			<circle class="devops-diagram-st33" cx="271.9" cy="239.3" r="8.4"/>
		</g>
		<g>
			<text transform="matrix(1 0 0 1 266.0414 243.0835)" class="devops-diagram-st6 devops-diagram-st2 devops-diagram-st35">14</text>
		</g>
	</g>
	<g class="flowStep">
		<g>
			<circle class="devops-diagram-st33" cx="340.1" cy="138.1" r="8.4"/>
		</g>
		<g>
			<text transform="matrix(1 0 0 1 334.3021 141.896)" class="devops-diagram-st6 devops-diagram-st2 devops-diagram-st35">15</text>
		</g>
	</g>
	<g class="flowStep">
		<g>
			<circle class="devops-diagram-st33" cx="97.1" cy="236.3" r="10"/>
		</g>
		<g>
			<text transform="matrix(1 0 0 1 90.237 240.8143)" class="devops-diagram-st6 devops-diagram-st2 devops-diagram-st36">16</text>
		</g>
	</g>
	<g class="flowStep">
		<g>
			<circle class="devops-diagram-st33" cx="857.1" cy="305" r="10"/>
		</g>
		<g>
			<text transform="matrix(1 0 0 1 850.0381 309.5412)" class="devops-diagram-st6 devops-diagram-st2 devops-diagram-st36">19</text>
		</g>
	</g>
	<g class="flowStep">
		<g>
			<circle class="devops-diagram-st33" cx="466.1" cy="280.1" r="9.3"/>
		</g>
		<g>
			<text transform="matrix(1 0 0 1 462.927 284.3777)" class="devops-diagram-st6 devops-diagram-st2 devops-diagram-st34">1</text>
		</g>
	</g>
	<g class="flowStep">
		<g>
			<circle class="devops-diagram-st33" cx="638" cy="239.3" r="8.4"/>
		</g>
		<g>
			<text transform="matrix(1 0 0 1 635.1216 243.083)" class="devops-diagram-st6 devops-diagram-st2 devops-diagram-st35">5</text>
		</g>
	</g>
	<g class="flowStep">
		<g>
			<circle class="devops-diagram-st33" cx="654.6" cy="374.7" r="8.4"/>
		</g>
		<g>
			<text transform="matrix(1 0 0 1 651.696 378.4248)" class="devops-diagram-st6 devops-diagram-st2 devops-diagram-st35">6</text>
		</g>
	</g>
	<g class="flowStep">
		<g>
			<circle class="devops-diagram-st33" cx="552.3" cy="133.8" r="8.4"/>
		</g>
		<g>
			<text transform="matrix(1 0 0 1 549.4329 137.5866)" class="devops-diagram-st6 devops-diagram-st2 devops-diagram-st35">3</text>
		</g>
	</g>
	<g class="flowStep">
		<g>
			<circle class="devops-diagram-st33" cx="602.2" cy="114.6" r="8.4"/>
		</g>
		<g>
			<text transform="matrix(1 0 0 1 598.6243 118.4395)" class="devops-diagram-st6 devops-diagram-st2 devops-diagram-st35">4</text>
		</g>
	</g>
	<g class="flowStep">
		<g>
			<circle class="devops-diagram-st33" cx="448.6" cy="104.4" r="8.4"/>
		</g>
		<g>
			<text transform="matrix(1 0 0 1 445.7572 108.176)" class="devops-diagram-st6 devops-diagram-st2 devops-diagram-st35">2</text>
		</g>
	</g>
	<rect x="386" y="214.3" class="devops-diagram-st13" width="83.5" height="20.3"/>
	<g>
		<g id="devops_runtime_containers">
			<g>

<rect x="415.2" y="522.7" class="devops-diagram-st37" width="35" height="35"/>
				<rect x="415.2" y="522.7" class="devops-diagram-st37" width="16.5" height="16.5"/>
				<rect x="415.2" y="541" class="devops-diagram-st38" width="16.5" height="16.5"/>
				<rect x="433.7" y="522.7" class="devops-diagram-st38" width="16.5" height="16.5"/>
				<rect x="433.7" y="541" class="devops-diagram-st37" width="16.5" height="16.5"/>
				<g>
					<rect x="417.9" y="524.9" class="devops-diagram-st6" width="1" height="11.9"/>

<rect x="428.3" y="524.9" class="devops-diagram-st6" width="1" height="11.9"/>
					<rect x="424.8" y="524.9" class="devops-diagram-st6" width="1" height="11.9"/>
					<rect x="421.3" y="524.9" class="devops-diagram-st6" width="1" height="11.9"/>
				</g>
				<g>
					<rect x="436.2" y="524.9" class="devops-diagram-st6" width="1" height="11.9"/>
					<rect x="446.6" y="524.9" class="devops-diagram-st6" width="1" height="11.9"/>
					<rect x="443.2" y="524.9" class="devops-diagram-st6" width="1" height="11.9"/>
					<rect x="439.6" y="524.9" class="devops-diagram-st6" width="1" height="11.9"/>
				</g>
				<g>
					<rect x="417.9" y="543.2" class="devops-diagram-st6" width="1" height="11.9"/>
					<rect x="428.3" y="543.2" class="devops-diagram-st6" width="1" height="11.9"/>
					<rect x="424.8" y="543.2" class="devops-diagram-st6" width="1" height="11.9"/>
					<rect x="421.3" y="543.2" class="devops-diagram-st6" width="1" height="11.9"/>
				</g>
				<g>
					<rect x="436.2" y="543.2" class="devops-diagram-st6" width="1" height="11.9"/>
					<rect x="446.6" y="543.2" class="devops-diagram-st6" width="1" height="11.9"/>
					<rect x="443.2" y="543.2" class="devops-diagram-st6" width="1" height="11.9"/>
					<rect x="439.6" y="543.2" class="devops-diagram-st6" width="1" height="11.9"/>
				</g>
			</g>
			<polygon class="devops-diagram-st39" points="455.1,561.6 410.4,561.6 410.4,552.8 412.8,552.8 412.8,559.4 452.7,559.4 452.7,552.8
				455.1,552.8 			"/>
		</g>
	</g>
	<g id="devops_source_control_3_">
		<path class="devops-diagram-st40" d="M608.4,136.3L589.9,119c-1-0.9-2.6-0.9-3.5,0.2l-15.9,17.1
			c-0.9,1-0.9,2.6,0.2,3.5l18.6,17.3c1,0.9,2.6,0.9,3.5-0.2l15.9-17.1C609.5,138.8,609.4,137.2,608.4,136.3z"/>
		<circle class="devops-diagram-st41" cx="589.7" cy="129" r="1.6"/>
		<circle class="devops-diagram-st41" cx="589.7" cy="144.2" r="1.6"/>
		<circle class="devops-diagram-st41" cx="597.7" cy="136.1" r="2.2"/>
		<line class="devops-diagram-st42" x1="583.6" y1="122.1" x2="595.6" y2="134.1"/>
		<line class="devops-diagram-st42" x1="589.7" y1="129" x2="589.7" y2="143.7"/>
	</g>
  <g id="devops_code">
    <g id="XMLID_545_" class="devops-diagram-st43">
  		<g id="XMLID_546_" class="devops-diagram-st44">
  			<path id="XMLID_548_" class="devops-diagram-st45" d="M667.2,103.3c0-0.5,0.1-0.9,0.1-1.3c0.1-0.4,0.2-0.7,0.4-1c0.1-0.2,0.5-0.4,0.8-0.5
  				s0.8-0.2,1.3-0.2c-1,0.3-1.5,1.1-1.5,2.2v3.5c0,0.3,0,0.7-0.1,1c-0.1,0.2-0.1,0.5-0.2,0.8c-0.1,0.2-0.2,0.4-0.5,0.5
  				c-0.2,0.2-0.5,0.3-0.8,0.4l0,0c0.6,0.2,1,0.4,1.2,0.8s0.3,1,0.3,1.6v3.7c0,0.6,0.2,1.1,0.4,1.4s0.6,0.6,1.3,0.8l0,0
  				c-0.6,0-1,0-1.3-0.2c-0.4-0.1-0.6-0.2-0.9-0.5c-0.2-0.2-0.4-0.5-0.5-0.8s-0.2-0.7-0.2-1.2v-3.7c0-0.5-0.1-1-0.3-1.3
  				c-0.2-0.4-0.6-0.6-1.2-0.7l0,0c0.3-0.1,0.6-0.2,0.8-0.3c0.2-0.2,0.3-0.2,0.5-0.5c0.1-0.2,0.2-0.4,0.2-0.6s0.1-0.5,0.1-0.8
  				L667.2,103.3L667.2,103.3L667.2,103.3z"/>
  			<path id="XMLID_547_" class="devops-diagram-st45" d="M674.8,106.8c0,0.5,0,1,0.2,1.3c0.2,0.4,0.6,0.6,1.2,0.7l0,0c-0.3,0.1-0.6,0.2-0.8,0.3
  				c-0.2,0.2-0.3,0.2-0.5,0.5c-0.1,0.2-0.2,0.4-0.2,0.6s-0.1,0.5-0.1,0.8v3.3c0,0.5,0,1-0.1,1.3s-0.2,0.7-0.4,1
  				c-0.2,0.2-0.5,0.4-0.8,0.5s-0.8,0.2-1.3,0.1c1-0.3,1.5-1.1,1.5-2.2v-3.5c0-0.3,0-0.7,0.1-1s0.1-0.5,0.2-0.8
  				c0.1-0.2,0.2-0.4,0.5-0.5c0.2-0.2,0.5-0.3,0.8-0.4l0,0c-0.3-0.1-0.6-0.2-0.7-0.3c-0.2-0.2-0.3-0.3-0.5-0.5
  				c-0.1-0.2-0.2-0.5-0.2-0.7c-0.1-0.2-0.1-0.5-0.1-1v-3.7c0-0.6-0.2-1.1-0.4-1.4s-0.6-0.6-1.3-0.8l0,0c0.6,0,1,0,1.3,0.2
  				c0.4,0.2,0.6,0.2,0.9,0.5c0.2,0.2,0.4,0.5,0.5,0.8s0.2,0.7,0.2,1.2L674.8,106.8L674.8,106.8L674.8,106.8z"/>
  		</g>
  	</g>
  	<g id="XMLID_540_" class="devops-diagram-st43">
  		<path id="XMLID_544_" class="devops-diagram-st46" d="M662.4,128.7c-0.3-0.2-0.8-0.4-1.3-0.4c-0.4,0-0.7,0.1-1,0.2c-0.3,0.2-0.6,0.3-0.7,0.6
  			c-0.2,0.2-0.3,0.5-0.4,0.9c-0.1,0.3-0.2,0.6-0.2,1s0.1,0.8,0.2,1.1c0.1,0.3,0.2,0.6,0.4,0.9c0.2,0.2,0.4,0.5,0.7,0.6
  			c0.3,0.2,0.6,0.2,1,0.2c0.3,0,0.6-0.1,0.8-0.2c0.2-0.1,0.4-0.2,0.6-0.4c0.2-0.2,0.3-0.4,0.4-0.6c0.1-0.2,0.2-0.5,0.2-0.8h0.9
  			c-0.1,0.9-0.4,1.5-0.9,2s-1.2,0.7-2.1,0.7c-0.6,0-1-0.1-1.3-0.2c-0.4-0.2-0.7-0.4-1-0.7c-0.2-0.3-0.5-0.7-0.6-1.1
  			c-0.1-0.4-0.2-0.9-0.2-1.4s0.1-1,0.2-1.4c0.2-0.4,0.3-0.8,0.6-1.1c0.2-0.3,0.6-0.5,1-0.8c0.4-0.2,0.9-0.3,1.3-0.3
  			c0.3,0,0.7,0.1,1,0.2s0.6,0.2,0.9,0.4c0.2,0.2,0.5,0.4,0.6,0.7c0.2,0.2,0.2,0.6,0.3,1h-0.9C662.9,129.4,662.7,128.9,662.4,128.7z"
  			/>
  		<path id="XMLID_543_" class="devops-diagram-st46" d="M665,129.8c0.2-0.4,0.3-0.8,0.6-1.1c0.2-0.3,0.6-0.5,1-0.8c0.4-0.2,0.9-0.3,1.4-0.3
  			c0.6,0,1,0.1,1.4,0.3c0.4,0.2,0.7,0.5,1,0.8s0.5,0.7,0.6,1.1c0.2,0.4,0.2,0.9,0.2,1.3c0,0.5-0.1,0.9-0.2,1.3
  			c-0.2,0.4-0.3,0.8-0.6,1.1s-0.6,0.5-1,0.8c-0.4,0.2-0.9,0.3-1.4,0.3c-0.6,0-1-0.1-1.4-0.3s-0.7-0.5-1-0.8
  			c-0.2-0.3-0.5-0.7-0.6-1.1s-0.2-0.9-0.2-1.3C664.7,130.7,664.8,130.2,665,129.8z M665.8,132.2c0.1,0.3,0.2,0.6,0.4,0.9
  			c0.2,0.2,0.4,0.5,0.7,0.6c0.3,0.2,0.6,0.2,1,0.2s0.8-0.1,1-0.2c0.2-0.2,0.6-0.4,0.7-0.6c0.2-0.2,0.3-0.5,0.4-0.9
  			c0.1-0.3,0.2-0.6,0.2-1c0-0.3-0.1-0.7-0.2-1c-0.1-0.3-0.2-0.6-0.4-0.9c-0.2-0.2-0.4-0.5-0.7-0.6s-0.6-0.2-1-0.2s-0.8,0.1-1,0.2
  			c-0.2,0.2-0.6,0.4-0.7,0.6c-0.2,0.2-0.3,0.5-0.4,0.9c-0.1,0.3-0.2,0.6-0.2,1C665.6,131.5,665.6,131.8,665.8,132.2z"/>
  		<path id="XMLID_542_" class="devops-diagram-st46" d="M674.8,127.9c1,0,1.8,0.2,2.4,0.8s0.9,1.3,0.9,2.4c0,0.5-0.1,1.1-0.2,1.5
  			c-0.2,0.5-0.3,0.8-0.6,1.1s-0.6,0.5-1,0.7s-0.9,0.2-1.4,0.2h-2.3v-6.8C672.5,127.8,674.8,127.9,674.8,127.9z M674.8,133.9
  			c0.1,0,0.2,0,0.4,0s0.3-0.1,0.5-0.1c0.2-0.1,0.3-0.2,0.5-0.2c0.2-0.1,0.3-0.2,0.5-0.5c0.2-0.2,0.2-0.5,0.3-0.7
  			c0.1-0.3,0.2-0.6,0.2-1.1c0-0.4,0-0.8-0.1-1.1s-0.2-0.5-0.4-0.8c-0.2-0.2-0.4-0.4-0.7-0.5s-0.6-0.2-1-0.2h-1.5v5.2L674.8,133.9
  			L674.8,133.9L674.8,133.9z"/>
  		<path id="XMLID_541_" class="devops-diagram-st46" d="M683.8,127.9v0.8H680v2.1h3.6v0.8H680v2.4h3.8v0.8H679V128L683.8,127.9L683.8,127.9z"/>
  	</g>
  	<polygon class="devops-diagram-st47" points="689.8,154 652,154 633.3,121.8 652.1,89.6 689.8,89.6 708.6,121.8 	"/>
  </g>
  <g id="devops_think">
  	<g id="XMLID_534_" class="devops-diagram-st43">
  		<path id="XMLID_538_" class="devops-diagram-st48" d="M432.7,28.7c-4,0-7.3,3.2-7.3,7.3c0,2,1,3.9,2.5,5.3c1.7,1.7,2.1,2.9,2.1,4.2V46h5.6v-0.4
  			c0-1.3,0.4-2.5,2.1-4.2C439,39.8,440,38,440,36C440,32,436.7,28.7,432.7,28.7"/>
  		<line id="XMLID_537_" class="devops-diagram-st48" x1="430" y1="48" x2="435.5" y2="48"/>
  		<line id="XMLID_536_" class="devops-diagram-st48" x1="430" y1="49.8" x2="435.5" y2="49.8"/>
  		<line id="XMLID_535_" class="devops-diagram-st48" x1="431" y1="51.8" x2="434.5" y2="51.8"/>
  	</g>
  	<g id="XMLID_528_" class="devops-diagram-st43">
  		<path id="XMLID_533_" class="devops-diagram-st46" d="M418.7,59.9v-0.8h5.5v0.8h-2.3v6H421v-6H418.7z"/>
  		<path id="XMLID_532_" class="devops-diagram-st46" d="M425.8,59.1V62h3.6v-2.9h0.9v6.8h-0.9v-3.1h-3.6v3.1h-0.9v-6.8
  			C424.9,59.1,425.8,59.1,425.8,59.1z"/>
  		<path id="XMLID_531_" class="devops-diagram-st46" d="M432.7,59.1v6.8h-0.9v-6.8C431.8,59.1,432.7,59.1,432.7,59.1z"/>
  		<path id="XMLID_530_" class="devops-diagram-st46" d="M435.1,59.1l3.6,5.4l0,0v-5.4h0.9v6.8h-1l-3.6-5.4l0,0v5.4h-0.9v-6.8L435.1,59.1L435.1,59.1
  			z"/>
  		<path id="XMLID_529_" class="devops-diagram-st46" d="M442,59.1v3.4l3.4-3.4h1.2l-2.9,2.7l3,4h-1.1l-2.5-3.4l-1.1,1v2.4h-1V59L442,59.1L442,59.1z
  			"/>
  	</g>
  	<polygon class="devops-diagram-st49" points="451.5,86 413.8,86 395,53.8 413.9,21.6 451.5,21.6 470.4,53.8 	"/>
  </g>
  <g id="devops_learn">
  	<polygon class="devops-diagram-st50" points="231.4,150.5 193.7,150.5 174.9,118.3 193.8,86.1 231.4,86.1 250.3,118.3 	"/>
  	<g class="devops-diagram-st43">
  		<ellipse id="XMLID_525_" class="devops-diagram-st51" cx="214.3" cy="115" rx="1.4" ry="1.4"/>
  		<ellipse id="XMLID_524_" class="devops-diagram-st51" cx="208" cy="111.3" rx="1.4" ry="1.4"/>
  		<ellipse id="XMLID_523_" class="devops-diagram-st51" cx="220.5" cy="105.8" rx="1.4" ry="1.4"/>
  		<path id="XMLID_522_" class="devops-diagram-st51" d="M200.2,98.9v20.6c0,0.5,0.4,0.9,0.9,0.9h21"/>
  		<line id="XMLID_521_" class="devops-diagram-st51" x1="206.7" y1="111" x2="203.4" y2="111"/>
  		<line id="XMLID_520_" class="devops-diagram-st51" x1="225.4" y1="105.8" x2="222.1" y2="105.8"/>
  		<line id="XMLID_519_" class="devops-diagram-st51" x1="209.3" y1="111.8" x2="213.1" y2="114.3"/>
  		<line id="XMLID_518_" class="devops-diagram-st51" x1="215" y1="113.9" x2="219.7" y2="106.8"/>
  	</g>
  	<g id="XMLID_512_" class="devops-diagram-st43">
  		<path id="XMLID_517_" class="devops-diagram-st46" d="M198.9,127.1v6h3.6v0.8H198v-6.7h0.9V127.1z"/>
  		<path id="XMLID_516_" class="devops-diagram-st46" d="M208,127.1v0.8h-3.8v2.1h3.6v0.8h-3.6v2.3h3.8v0.8h-4.7v-6.7L208,127.1
  			C208,127.2,208,127.1,208,127.1z"/>
  		<path id="XMLID_515_" class="devops-diagram-st46" d="M212,127.1l2.6,6.7h-1l-0.7-2H210l-0.8,2h-1l2.6-6.7C210.9,127.1,212,127.1,212,127.1z
  			 M212.6,131l-1.1-3.1l0,0l-1.2,3.1H212.6z"/>
  		<path id="XMLID_514_" class="devops-diagram-st46" d="M218.6,127.1c0.6,0,1.2,0.2,1.5,0.5c0.4,0.3,0.6,0.7,0.6,1.3c0,0.4-0.1,0.8-0.3,1.1
  			s-0.5,0.5-0.9,0.6l0,0c0.2,0,0.4,0.1,0.5,0.2c0.2,0.1,0.2,0.2,0.3,0.3s0.2,0.2,0.2,0.4s0.1,0.3,0.1,0.5s0,0.3,0,0.5s0,0.3,0.1,0.5
  			c0,0.2,0.1,0.3,0.1,0.5s0.1,0.3,0.2,0.4h-1c-0.1-0.1-0.1-0.2-0.2-0.3c0-0.2,0-0.2-0.1-0.4c0-0.2,0-0.3,0-0.5s0-0.3-0.1-0.5
  			c0-0.2-0.1-0.3-0.1-0.5s-0.1-0.3-0.2-0.4c-0.1-0.1-0.2-0.2-0.3-0.2c-0.2-0.1-0.3-0.1-0.6-0.1h-2.2v3h-0.8v-6.7h3.2V127.1z
  			 M218.7,130.2c0.2,0,0.4-0.1,0.5-0.2c0.2-0.1,0.2-0.2,0.3-0.4s0.2-0.4,0.2-0.6c0-0.3-0.1-0.6-0.3-0.9c-0.2-0.2-0.5-0.3-1-0.3h-2.2
  			v2.3h1.9C218.3,130.2,218.6,130.2,218.7,130.2z"/>
  		<path id="XMLID_513_" class="devops-diagram-st46" d="M222.8,127.1l3.6,5.4l0,0v-5.4h0.9v6.7h-1l-3.6-5.4l0,0v5.4h-0.9v-6.7
  			C221.8,127.1,222.8,127.1,222.8,127.1z"/>
  	</g>
  </g>
  <g id="devops_manage">
    <g id="XMLID_506_" class="devops-diagram-st43">
  		<g id="XMLID_507_">
  			<ellipse id="XMLID_509_" class="devops-diagram-st52" cx="209.9" cy="554.8" rx="4.8" ry="4.6"/>
  			<path id="XMLID_508_" class="devops-diagram-st52" d="M221.6,556v-2.6c0-0.5-0.4-0.9-1-0.9h-1.4c-0.4,0-0.7-0.2-0.9-0.6l-0.4-1
  				c-0.2-0.4-0.1-0.8,0.2-1l1-1c0.4-0.4,0.4-0.9,0-1.3l-1.9-1.8c-0.4-0.4-1-0.4-1.3,0l-1,1c-0.2,0.2-0.7,0.4-1,0.2l-1-0.4
  				c-0.4-0.2-0.6-0.5-0.6-0.8v-1.4c0-0.5-0.4-0.9-1-0.9h-2.7c-0.6,0-1,0.4-1,0.9v1.4c0,0.4-0.2,0.7-0.6,0.8l-1,0.4
  				c-0.4,0.2-0.8,0.1-1-0.2l-1-1c-0.4-0.4-1-0.4-1.3,0l-1.9,1.8c-0.4,0.4-0.4,0.9,0,1.3l1,1c0.2,0.2,0.3,0.7,0.2,1l-0.4,1
  				c-0.2,0.3-0.5,0.5-0.9,0.5h-1.4c-0.6,0-1,0.4-1,0.9v2.6c0,0.5,0.4,0.9,1,0.9h1.4c0.4,0,0.7,0.2,0.9,0.6l0.4,1
  				c0.2,0.4,0.1,0.8-0.2,1l-1,1c-0.4,0.4-0.4,0.9,0,1.3l1.9,1.8c0.4,0.4,1,0.4,1.3,0l1-1c0.2-0.2,0.7-0.4,1-0.2l1,0.4
  				c0.4,0.2,0.6,0.5,0.6,0.8v1.4c0,0.5,0.4,0.9,1,0.9h2.7c0.6,0,1-0.4,1-0.9v-1.4c0-0.4,0.2-0.7,0.6-0.8l1-0.4
  				c0.4-0.2,0.8-0.1,1,0.2l1,1c0.4,0.4,1,0.4,1.3,0l1.9-1.8c0.4-0.4,0.4-0.9,0-1.3l-1-1c-0.2-0.2-0.4-0.7-0.2-1l0.4-1
  				c0.2-0.3,0.5-0.5,0.9-0.5h1.4C221.1,556.9,221.6,556.5,221.6,556z"/>
  		</g>
  	</g>
  	<g id="XMLID_499_" class="devops-diagram-st43">
  		<path id="XMLID_505_" class="devops-diagram-st46" d="M191.5,573.1l2.1,5.5l2.1-5.5h1.3v6.6h-0.9v-5.4l0,0l-2.1,5.4h-0.8l-2.1-5.4l0,0v5.4h-0.9
  			v-6.6H191.5z"/>
  		<path id="XMLID_504_" class="devops-diagram-st46" d="M201.3,573.1l2.6,6.6h-1l-0.7-2h-2.9l-0.8,2h-1l2.6-6.6H201.3z M201.9,576.9l-1.1-3.1l0,0
  			l-1.2,3.1H201.9z"/>
  		<path id="XMLID_503_" class="devops-diagram-st46" d="M205.6,573.1l3.6,5.3l0,0v-5.3h0.9v6.6h-0.9l-3.6-5.3l0,0v5.3h-0.9v-6.6H205.6z"/>
  		<path id="XMLID_502_" class="devops-diagram-st46" d="M214.4,573.1l2.6,6.6h-1l-0.7-2h-2.9l-0.8,2h-1l2.6-6.6H214.4z M215.1,576.9l-1.1-3.1l0,0
  			l-1.2,3.1H215.1z"/>
  		<path id="XMLID_501_" class="devops-diagram-st46" d="M221.8,579.5c-0.4,0.2-0.8,0.2-1.2,0.2c-0.5,0-1-0.1-1.3-0.3c-0.4-0.2-0.7-0.5-1-0.8
  			s-0.5-0.7-0.6-1.1c-0.2-0.4-0.2-0.8-0.2-1.2c0-0.5,0.1-0.9,0.2-1.4c0.2-0.5,0.3-0.8,0.6-1.1c0.2-0.3,0.6-0.6,1-0.8
  			s0.9-0.3,1.4-0.3c0.4,0,0.7,0.1,1,0.2c0.3,0.1,0.6,0.2,0.9,0.4c0.2,0.2,0.5,0.4,0.6,0.7c0.2,0.3,0.3,0.6,0.3,1h-0.9
  			c-0.1-0.2-0.2-0.5-0.2-0.6c-0.2-0.2-0.2-0.3-0.5-0.5c-0.2-0.2-0.4-0.2-0.6-0.2c-0.2-0.1-0.5-0.1-0.7-0.1c-0.4,0-0.8,0.1-1,0.2
  			c-0.3,0.2-0.6,0.4-0.7,0.6s-0.3,0.5-0.4,0.9c-0.1,0.3-0.2,0.7-0.2,1s0.1,0.7,0.2,1c0.1,0.3,0.2,0.6,0.5,0.8
  			c0.2,0.2,0.5,0.5,0.7,0.6c0.3,0.2,0.6,0.2,1,0.2c0.3,0,0.6-0.1,1-0.2c0.2-0.1,0.5-0.2,0.7-0.5c0.2-0.2,0.3-0.4,0.4-0.7
  			c0.1-0.3,0.2-0.5,0.2-0.8h-2.3v-0.8h3v3.4h-0.6l-0.2-0.8C222.5,579.1,222.2,579.4,221.8,579.5z"/>
  		<path id="XMLID_500_" class="devops-diagram-st46" d="M229.7,573.1v0.8h-3.8v2.1h3.6v0.8h-3.6v2.3h3.8v0.8h-4.8v-6.6L229.7,573.1L229.7,573.1z"/>
  	</g>
  	<polygon class="devops-diagram-st53" points="228.7,600.3 191,600.3 172.2,569.2 191.1,538.1 228.8,538.1 247.6,569.2 	"/>
  </g>
  <g id="devops_deliver">
    <g id="XMLID_494_" class="devops-diagram-st43">
  		<path id="XMLID_497_" class="devops-diagram-st54" d="M670.7,565.7l3-1.7l-1.7-2.8c-0.2-0.3-0.2-0.7,0.1-1l2.3-3.1c1.5-2.1,2.3-4.4,2.3-6.9v-4.6
  			c0-0.7-0.8-1.2-1.4-0.8c-1.7,0.9-4.1,2.3-4.1,2.3c-2.2,1.2-4,3.1-5.1,5.4l-1.7,3.5c-0.2,0.3-0.5,0.5-0.9,0.5h-3.4v3.3"/>
  		<path id="XMLID_496_" class="devops-diagram-st54" d="M664.6,566.4c0.8-0.4,1.8-0.9,2.1-1.5v-0.1c0.6-1,0-2.3-1.1-3"/>
  		<path id="XMLID_495_" class="devops-diagram-st54" d="M662.6,565.4c-0.1-0.8-0.1-1.9,0.2-2.5v-0.1c0.6-1,1.9-1.3,2.9-0.8"/>
  	</g>
  	<g id="XMLID_486_" class="devops-diagram-st43">
  		<path id="XMLID_493_" class="devops-diagram-st46" d="M652.3,576.5c1,0,1.8,0.2,2.4,0.8c0.6,0.5,0.9,1.3,0.9,2.4c0,0.5-0.1,1.1-0.2,1.5
  			c-0.2,0.5-0.3,0.8-0.6,1.1c-0.2,0.3-0.6,0.5-1,0.7s-0.9,0.2-1.4,0.2H650v-6.6h2.3V576.5z M652.4,582.3c0.1,0,0.2,0,0.4,0
  			c0.1,0,0.3-0.1,0.5-0.1c0.2-0.1,0.3-0.2,0.5-0.2s0.3-0.2,0.5-0.5c0.2-0.2,0.2-0.5,0.3-0.7c0.1-0.3,0.2-0.6,0.2-1s0-0.8-0.1-1.1
  			s-0.2-0.5-0.4-0.8c-0.1-0.2-0.4-0.4-0.7-0.5s-0.6-0.2-1-0.2h-1.5v5h1.4v0.1H652.4z"/>
  		<path id="XMLID_492_" class="devops-diagram-st46" d="M661.4,576.5v0.8h-3.8v2.1h3.6v0.8h-3.6v2.3h3.8v0.8h-4.8v-6.6L661.4,576.5L661.4,576.5z"/>
  		<path id="XMLID_491_" class="devops-diagram-st46" d="M663.4,576.5v5.8h3.6v0.8h-4.5v-6.6H663.4z"/>
  		<path id="XMLID_490_" class="devops-diagram-st46" d="M668.7,576.5v6.6h-0.9v-6.6H668.7z"/>
  		<path id="XMLID_489_" class="devops-diagram-st46" d="M671.9,583.1l-2.4-6.6h1l1.9,5.6l0,0l2-5.6h1l-2.4,6.6H671.9z"/>
  		<path id="XMLID_488_" class="devops-diagram-st46" d="M680.8,576.5v0.8H677v2.1h3.6v0.8H677v2.3h3.8v0.8H676v-6.6L680.8,576.5L680.8,576.5z"/>
  		<path id="XMLID_487_" class="devops-diagram-st46" d="M685.2,576.5c0.6,0,1.2,0.2,1.5,0.5c0.4,0.3,0.6,0.7,0.6,1.2c0,0.4-0.1,0.8-0.3,1.1
  			s-0.5,0.5-0.9,0.6l0,0c0.2,0,0.4,0.1,0.5,0.2c0.2,0.1,0.2,0.2,0.3,0.3c0.1,0.2,0.2,0.2,0.2,0.4c0,0.1,0.1,0.3,0.1,0.5s0,0.3,0,0.5
  			s0,0.3,0.1,0.5s0.1,0.3,0.1,0.5c0.1,0.2,0.2,0.3,0.2,0.4h-1c-0.1-0.1-0.1-0.2-0.2-0.3c0-0.2,0-0.2-0.1-0.4c0-0.2,0-0.3,0-0.5
  			s0-0.3-0.1-0.5c0-0.2-0.1-0.3-0.1-0.5s-0.1-0.3-0.2-0.4c-0.1-0.1-0.2-0.2-0.3-0.2c-0.2,0-0.3-0.1-0.6-0.1h-2.2v2.8H682v-6.6H685.2
  			L685.2,576.5L685.2,576.5L685.2,576.5z M685.3,579.5c0.2,0,0.4-0.1,0.5-0.2c0.1-0.1,0.2-0.2,0.3-0.4s0.2-0.4,0.2-0.6
  			c0-0.3-0.1-0.6-0.3-0.8s-0.5-0.3-1-0.3h-2.2v2.3h1.9C685,579.5,685.2,579.5,685.3,579.5z"/>
  	</g>
  	<g id="XMLID_484_" class="devops-diagram-st43">
  		<polygon class="devops-diagram-st55" points="687.6,601.4 649.9,601.3 631.1,570.2 649.9,539 687.6,539.1 706.4,570.2 		"/>
  	</g>
  </g>
  <g id="devops_run">
  	<path id="XMLID_483_" class="devops-diagram-st56" d="M439.9,625.1l-13-0.1l0,0c-3.2,0-5.8-2.5-5.8-5.6s2.6-5.6,5.8-5.6c0.8,0,1.6,0.2,2.2,0.5
  		c0.9-1.9,2.9-3.2,5.3-3.2c3.1,0,5.6,2.4,5.8,5.3c2.3,0.2,4.2,2.1,4.2,4.3C444.3,623.1,442.4,625.1,439.9,625.1L439.9,625.1
  		L439.9,625.1"/>
  	<g id="XMLID_479_" class="devops-diagram-st43">
  		<path id="XMLID_482_" class="devops-diagram-st46" d="M426.4,633.7c0.6,0,1.2,0.2,1.5,0.5c0.4,0.3,0.6,0.7,0.6,1.2c0,0.4-0.1,0.8-0.3,1.1
  			c-0.2,0.3-0.5,0.5-0.9,0.6l0,0c0.2,0,0.4,0.1,0.5,0.2c0.2,0.1,0.2,0.2,0.3,0.3c0.1,0.2,0.2,0.2,0.2,0.4s0.1,0.3,0.1,0.5
  			s0,0.3,0,0.5s0,0.3,0.1,0.5c0,0.2,0.1,0.3,0.1,0.5c0.1,0.2,0.1,0.3,0.2,0.4h-1c-0.1-0.1-0.1-0.2-0.2-0.3c0-0.2,0-0.2-0.1-0.4
  			c0-0.2,0-0.3,0-0.5s0-0.3-0.1-0.5c0-0.2-0.1-0.3-0.1-0.5s-0.1-0.3-0.2-0.4c-0.1-0.1-0.2-0.2-0.3-0.2c-0.2-0.1-0.3-0.1-0.6-0.1H424
  			v2.8h-0.9v-6.6H426.4L426.4,633.7L426.4,633.7z M426.5,636.7c0.2,0,0.4-0.1,0.5-0.2c0.2-0.1,0.2-0.2,0.3-0.4
  			c0.1-0.2,0.2-0.4,0.2-0.6c0-0.3-0.1-0.6-0.3-0.8c-0.2-0.2-0.5-0.3-1-0.3H424v2.3h2C426.1,636.8,426.4,636.8,426.5,636.7z"/>
  		<path id="XMLID_481_" class="devops-diagram-st46" d="M434.4,639.8c-0.5,0.4-1.1,0.6-2,0.6s-1.6-0.2-2.1-0.6c-0.5-0.4-0.7-1.1-0.7-1.9v-4.2h0.9
  			v4.2c0,0.6,0.2,1,0.5,1.3s0.8,0.5,1.4,0.5s1-0.2,1.3-0.5s0.5-0.8,0.5-1.3v-4.2h0.9v4.2C435.1,638.8,434.9,639.4,434.4,639.8z"/>
  		<path id="XMLID_480_" class="devops-diagram-st46" d="M437.5,633.7l3.6,5.3l0,0v-5.3h0.9v6.6h-1l-3.6-5.3l0,0v5.3h-0.9v-6.6H437.5z"/>
  	</g>
  	<g id="XMLID_477_" class="devops-diagram-st43">
  		<polygon class="devops-diagram-st57" points="451.6,660.4 413.9,660.4 395.1,629.3 413.9,598.1 451.6,598.1 470.4,629.3 		"/>
  	</g>
  </g>
	<g id="XMLID_475_" class="devops-diagram-st43">
		<path id="XMLID_476_" class="devops-diagram-st58" d="M422.1,207.1c-2.3-2.2-2.3-5.8,0-8s6-2.2,8.3,0l1.6,1.5l1.6-1.5c2.3-2.2,6-2.2,8.3,0
			s2.3,5.8,0,8l-9.9,9.5L422.1,207.1z"/>
	</g>
	<g id="XMLID_467_" class="devops-diagram-st43">
		<path id="XMLID_474_" class="devops-diagram-st46" d="M415.4,227c-0.3-0.2-0.8-0.4-1.3-0.4c-0.4,0-0.8,0.1-1,0.2c-0.3,0.2-0.6,0.4-0.7,0.6
			c-0.2,0.2-0.3,0.5-0.4,0.8s-0.2,0.6-0.2,1s0.1,0.8,0.2,1.1s0.2,0.6,0.4,0.8c0.1,0.2,0.4,0.5,0.7,0.6c0.3,0.1,0.6,0.2,1,0.2
			c0.3,0,0.6-0.1,0.8-0.2c0.2-0.1,0.4-0.2,0.6-0.4s0.3-0.4,0.4-0.6s0.2-0.5,0.2-0.8h0.9c-0.1,0.8-0.4,1.5-0.9,1.9s-1.2,0.7-2.1,0.7
			c-0.6,0-1-0.1-1.3-0.2c-0.4-0.2-0.7-0.4-1-0.7c-0.2-0.3-0.5-0.7-0.6-1.1c-0.2-0.4-0.2-0.8-0.2-1.4c0-0.5,0.1-0.9,0.2-1.4
			c0.2-0.4,0.3-0.8,0.6-1.1c0.2-0.3,0.6-0.5,1-0.8c0.4-0.2,0.9-0.3,1.3-0.3c0.3,0,0.7,0.1,1,0.2c0.3,0.1,0.6,0.2,0.9,0.4
			c0.2,0.2,0.5,0.4,0.6,0.7c0.2,0.2,0.2,0.6,0.3,0.9h-0.9C416,227.5,415.8,227.2,415.4,227z"/>
		<path id="XMLID_473_" class="devops-diagram-st46" d="M422.9,232.1c-0.5,0.4-1.1,0.6-2,0.6s-1.6-0.2-2.1-0.6c-0.5-0.4-0.7-1.1-0.7-1.9V226h0.9
			v4.2c0,0.6,0.2,1,0.5,1.3s0.8,0.5,1.4,0.5s1-0.2,1.3-0.5s0.5-0.8,0.5-1.3V226h0.9v4.2C423.6,231,423.4,231.6,422.9,232.1z"/>
		<path id="XMLID_472_" class="devops-diagram-st46" d="M426,226v5.8h3.6v0.8H425V226H426z"/>
		<path id="XMLID_471_" class="devops-diagram-st46" d="M428.8,226.7V226h5.5v0.8H432v5.8h-0.9v-5.8h-2.3L428.8,226.7L428.8,226.7z"/>
		<path id="XMLID_470_" class="devops-diagram-st46" d="M439.7,232.1c-0.5,0.4-1.1,0.6-2,0.6s-1.6-0.2-2.1-0.6c-0.5-0.4-0.7-1.1-0.7-1.9V226h0.9
			v4.2c0,0.6,0.2,1,0.5,1.3s0.8,0.5,1.4,0.5s1-0.2,1.3-0.5s0.5-0.8,0.5-1.3V226h0.9v4.2C440.3,231,440.2,231.6,439.7,232.1z"/>
		<path id="XMLID_469_" class="devops-diagram-st46" d="M445.1,226c0.6,0,1.2,0.2,1.5,0.5c0.4,0.3,0.6,0.7,0.6,1.2c0,0.4-0.1,0.8-0.3,1.1
			c-0.2,0.3-0.5,0.5-0.9,0.6l0,0c0.2,0,0.4,0.1,0.5,0.2c0.2,0.1,0.2,0.2,0.3,0.3c0.1,0.2,0.2,0.2,0.2,0.4s0.1,0.3,0.1,0.5
			s0,0.3,0,0.5s0,0.3,0.1,0.5s0.1,0.3,0.1,0.5c0.1,0.2,0.2,0.3,0.2,0.4h-1c-0.1-0.1-0.1-0.2-0.2-0.3c0-0.2,0-0.2-0.1-0.4
			c0-0.2,0-0.3,0-0.5s0-0.3-0.1-0.5c0-0.2-0.1-0.3-0.1-0.5s-0.1-0.3-0.2-0.4c-0.1-0.1-0.2-0.2-0.3-0.2c-0.1,0-0.3-0.1-0.6-0.1h-2.2
			v2.8h-0.9V226H445.1L445.1,226z M445.2,228.9c0.2,0,0.4-0.1,0.5-0.2c0.1-0.1,0.2-0.2,0.3-0.4c0.1-0.2,0.2-0.4,0.2-0.6
			c0-0.3-0.1-0.6-0.3-0.8c-0.2-0.2-0.5-0.3-1-0.3h-2.2v2.3h1.9C444.8,229,445.1,229,445.2,228.9z"/>
		<path id="XMLID_468_" class="devops-diagram-st46" d="M453.1,226v0.8h-3.8v2.1h3.6v0.8h-3.6v2.3h3.8v0.8h-4.8V226H453.1L453.1,226z"/>
	</g>
	<polygon id="XMLID_466_" class="devops-diagram-st59" points="451.2,252.7 413.5,252.6 394.7,221.5 413.6,190.4 451.2,190.4 470.1,221.6 	"/>
	<g>
		<path id="XMLID_465_" class="devops-diagram-st60" d="M392.3,144.7c-12.7,1.8-25.1,6-36.4,12.3"/>
		<g id="XMLID_463_">
			<path id="XMLID_464_" class="devops-diagram-st61" d="M397.7,144.2c-2.7-0.7-6-2-8.2-3.5l2,4.1l-1,4.6C392.3,147.4,395.4,145.4,397.7,144.2z"/>
		</g>
	</g>
	<g>
		<path id="XMLID_462_" class="devops-diagram-st60" d="M607.5,217.8c-6.8-10.9-15.6-20.6-25.9-28.4"/>
		<g id="XMLID_460_">
			<path id="XMLID_461_" class="devops-diagram-st61" d="M610.2,222.6c-0.4-2.8-0.6-6.3-0.1-8.9l-3,3.5l-4.6,0.9C605,218.9,608.1,220.9,610.2,222.6
				z"/>
		</g>
	</g>
	<g>
		<path id="XMLID_459_" class="devops-diagram-st60" d="M641.6,359.1c2.6-12.6,2.8-25.7,0.7-38.4"/>
		<g id="XMLID_457_">
			<path id="XMLID_458_" class="devops-diagram-st61" d="M640.3,364.4c1.6-2.3,3.9-5,6-6.6l-4.6,0.5l-3.9-2.5C639,358.2,640,361.7,640.3,364.4z"/>
		</g>
	</g>
	<g>
		<path id="XMLID_456_" class="devops-diagram-st60" d="M569.1,486.1c10.7-7.1,20.1-16.2,27.5-26.8"/>
		<g id="XMLID_454_">
			<path id="XMLID_455_" class="devops-diagram-st61" d="M564.4,488.9c2.7-0.5,6.3-0.8,8.9-0.4l-3.6-2.9l-1-4.6C567.9,483.7,566,486.8,564.4,488.9z
				"/>
		</g>
	</g>
	<g>
		<path id="XMLID_453_" class="devops-diagram-st60" d="M477.3,523c10-0.8,19.7-4,28.4-9.4"/>
		<g id="XMLID_451_">
			<path id="XMLID_452_" class="devops-diagram-st61" d="M473,523.1c2.2,0.9,4.9,2.4,6.7,4l-1.8-4.2l0.6-4.4C477.2,520.4,474.9,522.2,473,523.1z"/>
		</g>
	</g>
	<g>
		<path id="XMLID_450_" class="devops-diagram-st60" d="M364.8,505.4c8.4,5.8,18.1,9.6,28.3,11"/>
		<g id="XMLID_448_">
			<path id="XMLID_449_" class="devops-diagram-st61" d="M361.3,502.7c1.1,2.1,2.3,5,2.7,7.4l1.3-4.4l3.3-3C366.4,503.2,363.4,503.2,361.3,502.7z"
				/>
		</g>
	</g>
	<g>
		<path id="XMLID_447_" class="devops-diagram-st60" d="M298.4,453.2c3.9,7.5,9.8,13.6,17.2,18"/>
		<g id="XMLID_445_">
			<path id="XMLID_446_" class="devops-diagram-st61" d="M296.9,449.9c-0.1,2.1-0.5,5-1.4,7.1l3.1-3.4l4-1.6C300.7,451.9,298.4,450.9,296.9,449.9z"
				/>
		</g>
	</g>
	<g>
		<path id="XMLID_444_" class="devops-diagram-st60" d="M253.4,330.5c-1.4,12.8-0.4,25.8,2.9,38.3"/>
		<g id="XMLID_442_">
			<path id="XMLID_443_" class="devops-diagram-st61" d="M254.2,325.1c-1.4,2.4-3.4,5.4-5.4,7.1l4.5-0.9l4.2,2.1C256,331.1,254.8,327.7,254.2,325.1
				z"/>
		</g>
	</g>
	<g>
		<path id="XMLID_441_" class="devops-diagram-st60" d="M510.8,144.2c-11.8-5.1-24.6-8-37.4-8.5"/>
		<g id="XMLID_439_">
			<path id="XMLID_440_" class="devops-diagram-st61" d="M515.7,146.6c-1.9-2-4.1-4.8-5.2-7.3l-0.4,4.6l-3.3,3.3
				C509.4,146.6,513.1,146.4,515.7,146.6z"/>
		</g>
	</g>
	<g>
		<text transform="matrix(1 0 0 1 50.9974 415.1154)" class="devops-diagram-st1 devops-diagram-st2 devops-diagram-st3">DEVOPS</text>
		<text transform="matrix(1 0 0 1 41.3974 428.3154)" class="devops-diagram-st1 devops-diagram-st2 devops-diagram-st3">ENGINEERS</text>
	</g>
  <g id="devops_user_1_">
  	<ellipse class="devops-diagram-st10" cx="73.6" cy="374" rx="27.5" ry="27.5"/>
  	<g>
  		<g>
  			<path class="devops-diagram-st6" d="M80.2,380.5L67,380.4c-1.8,0-3.3,1.5-3.3,3.3v3.3l19.8,0.1v-3.3C83.5,382,82,380.5,80.2,380.5z"/>
  			<path class="devops-diagram-st6" d="M73.6,377.1c-4.6,0-8.4-3.8-8.4-8.4s3.8-8.4,8.4-8.4s8.4,3.8,8.4,8.4C82,373.3,78.2,377.1,73.6,377.1z
  				 M73.6,361.4c-4.1,0-7.3,3.3-7.3,7.3c0,4.1,3.3,7.3,7.3,7.3c4.1,0,7.4-3.3,7.4-7.3C80.9,364.7,77.6,361.4,73.6,361.4z"/>
  		</g>
  	</g>
  </g>
<g class="flowStep">
		<g>
			<circle class="devops-diagram-st33" cx="97.1" cy="341.1" r="10"/>
		</g>
		<g>
			<text transform="matrix(1 0 0 1 88.687 345.6143)" class="devops-diagram-st6 devops-diagram-st2 devops-diagram-st36">17</text>
		</g>
</g>
<g class="flowStep">
	<path class="devops-diagram-st33" d="M771.1,165.2c0-5.5,4.5-10,10-10s10,4.5,10,10s-4.5,10-10,10"/>
	<path class="devops-diagram-st33" d="M781.1,175.2c-5.5,0-10-4.5-10-10"/>
	<text transform="matrix(1 0 0 1 774.0381 169.7412)" class="devops-diagram-st6 devops-diagram-st2 devops-diagram-st36">18</text>
</g>
</g>
</svg>
